<svg id="SvgjsSvg1031" xmlns="http://www.w3.org/2000/svg" version="1.1" xmlns:xlink="http://www.w3.org/1999/xlink" xmlns:svgjs="http://svgjs.com/svgjs" width="54" height="59" viewBox="0 0 54 59"><title>window</title><desc>Created with Avocode.</desc><defs id="SvgjsDefs1032"></defs><path id="SvgjsPath1033" d="M194.93 3584.86C194.42000000000002 3584.86 194 3584.46 194 3583.96L194 3580.04C194 3579.55 194.42 3579.14 194.93 3579.14L198.52 3579.14L198.52 3526.9C198.52 3526.4 198.94 3526 199.45000000000002 3526L241.74 3526C242.25 3526 242.67000000000002 3526.4 242.67000000000002 3526.9L242.67000000000002 3579.14L246.27 3579.14C246.78 3579.14 247.19 3579.5499999999997 247.19 3580.04L247.19 3583.96C247.19 3584.46 246.78 3584.86 246.27 3584.86ZM240.81 3579.14L240.81 3527.7999999999997L200.38 3527.7999999999997L200.38 3579.14ZM222.45 3577.29C221.94 3577.29 221.51999999999998 3576.89 221.51999999999998 3576.39L221.51999999999998 3530.2599999999998C221.51999999999998 3529.77 221.93999999999997 3529.3599999999997 222.45 3529.3599999999997L226.79 3529.3599999999997C226.79999999999998 3529.3599999999997 226.79999999999998 3529.3599999999997 226.81 3529.3599999999997L230.19 3529.3599999999997C230.2 3529.3599999999997 230.21 3529.3599999999997 230.21 3529.3599999999997L233.08 3529.3599999999997C233.09 3529.3599999999997 233.09 3529.3599999999997 233.09 3529.3599999999997L238.03 3529.3599999999997C238.54 3529.3599999999997 238.96 3529.7699999999995 238.96 3530.2599999999998L238.96 3569.6299999999997C238.96 3569.64 238.96 3569.64 238.96 3569.64L238.96 3576.39C238.96 3576.89 238.54000000000002 3577.29 238.03 3577.29ZM203.16 3577.29C202.65 3577.29 202.23 3576.89 202.23 3576.39L202.23 3569.64C202.23 3569.64 202.23 3569.64 202.23 3569.6299999999997L202.23 3530.2599999999998C202.23 3529.77 202.64999999999998 3529.3599999999997 203.16 3529.3599999999997L207.73 3529.3599999999997C207.73999999999998 3529.3599999999997 207.73999999999998 3529.3599999999997 207.75 3529.3599999999997L210.61 3529.3599999999997C210.62 3529.3599999999997 210.63000000000002 3529.3599999999997 210.63000000000002 3529.3599999999997L218.74 3529.3599999999997C219.25 3529.3599999999997 219.67000000000002 3529.7699999999995 219.67000000000002 3530.2599999999998L219.67000000000002 3576.39C219.67000000000002 3576.89 219.25000000000003 3577.29 218.74 3577.29ZM237.1 3575.49L237.1 3569.97C236.17 3568.89 232.85999999999999 3564.64 230.18 3556.12C227.49 3547.56 226.24 3534.5899999999997 225.94 3531.17L223.38 3531.17L223.38 3575.4900000000002ZM217.81 3575.49L217.81 3531.1699999999996L215.25 3531.1699999999996C214.96 3534.5899999999997 213.71 3547.5599999999995 211.02 3556.1099999999997C208.33 3564.64 205.02 3568.89 204.09 3569.97L204.09 3575.49ZM231.95 3555.59C233.7 3561.1600000000003 235.73 3564.82 237.10999999999999 3566.8900000000003L237.10999999999999 3531.1700000000005L234.07999999999998 3531.1700000000005C234.24999999999997 3533.1800000000007 234.70999999999998 3537.9000000000005 235.57999999999998 3540.8900000000003C235.71999999999997 3541.3700000000003 235.42999999999998 3541.8700000000003 234.94 3542.0000000000005C234.44 3542.1400000000003 233.93 3541.8600000000006 233.79 3541.3800000000006C232.85 3538.1300000000006 232.38 3533.1500000000005 232.22 3531.1700000000005L231.22 3531.1700000000005C231.46 3533.7200000000007 232.16 3540.7200000000007 233.08 3545.1000000000004C233.19000000000003 3545.59 232.86 3546.0600000000004 232.36 3546.1600000000003C231.86 3546.26 231.37 3545.9500000000003 231.27 3545.4600000000005C230.29000000000002 3540.8400000000006 229.58 3533.6100000000006 229.35000000000002 3531.1700000000005L227.8 3531.1700000000005C228.12 3534.7400000000007 229.39000000000001 3547.4400000000005 231.95000000000002 3555.5900000000006ZM245.34 3583.06L245.34 3580.94L195.85 3580.94L195.85 3583.06ZM204.09 3566.89C205.47 3564.7999999999997 207.5 3561.1299999999997 209.24 3555.5899999999997C211.81 3547.4399999999996 213.07000000000002 3534.74 213.39000000000001 3531.1699999999996L211.47000000000003 3531.1699999999996C211.25000000000003 3533.6099999999997 210.54000000000002 3540.8399999999997 209.56000000000003 3545.4599999999996C209.46000000000004 3545.9499999999994 208.97000000000003 3546.2599999999998 208.47000000000003 3546.1599999999994C207.96000000000004 3546.0599999999995 207.64000000000001 3545.5899999999992 207.74000000000004 3545.0999999999995C208.67000000000004 3540.7199999999993 209.37000000000003 3533.7199999999993 209.61000000000004 3531.1699999999996L208.61000000000004 3531.1699999999996C208.45000000000005 3533.1499999999996 207.98000000000005 3538.1299999999997 207.03000000000003 3541.3799999999997C206.89000000000004 3541.8599999999997 206.38000000000002 3542.14 205.89000000000004 3541.9999999999995C205.40000000000003 3541.8699999999994 205.11000000000004 3541.3699999999994 205.25000000000006 3540.8899999999994C206.12000000000006 3537.8999999999996 206.58000000000007 3533.1799999999994 206.74000000000007 3531.1699999999996L204.09000000000006 3531.1699999999996Z " fill="#f8d49a" fill-opacity="1" transform="matrix(1,0,0,1,-194,-3526)"></path></svg>