<svg id="SvgjsSvg1062" xmlns="http://www.w3.org/2000/svg" version="1.1" xmlns:xlink="http://www.w3.org/1999/xlink" xmlns:svgjs="http://svgjs.com/svgjs" width="74" height="59" viewBox="0 0 74 59"><title>tool</title><desc>Created with Avocode.</desc><defs id="SvgjsDefs1063"></defs><path id="SvgjsPath1064" d="M397 3556.04C397 3564.88 403.76 3572.08 412.07 3572.08C420.38 3572.08 427.14 3564.88 427.14 3556.04C427.14 3547.2 420.38 3540 412.07 3540C403.76 3540 397 3547.2 397 3556.04ZM399.18 3556.04C399.18 3548.48 404.96 3542.32 412.07 3542.32C419.17 3542.32 424.95 3548.48 424.95 3556.04C424.95 3563.6 419.17 3569.75 412.07 3569.75C404.96 3569.75 399.18 3563.6 399.18 3556.04Z " fill="#f8d49a" fill-opacity="1" transform="matrix(1,0,0,1,-384,-3526)"></path><path id="SvgjsPath1065" d="M454.88 3571.78L454.88 3578.0600000000004L438.43 3578.0600000000004L438.43 3556.28C438.43 3552.61 437.8 3549.0400000000004 436.59000000000003 3545.7000000000003L437.64000000000004 3544.5800000000004C438.71000000000004 3543.4400000000005 438.95000000000005 3541.6500000000005 438.21000000000004 3540.2200000000003C435.43000000000006 3534.8300000000004 431.29 3530.4100000000003 426.22 3527.4500000000003C424.88000000000005 3526.67 423.19000000000005 3526.92 422.12 3528.0600000000004L421.15 3529.0900000000006C418.29999999999995 3527.9200000000005 415.26 3527.2800000000007 412.13 3527.2300000000005C404.83 3527.1100000000006 397.98 3530.0700000000006 392.82 3535.5500000000006C387.67 3541.0400000000004 384.89 3548.3400000000006 385 3556.100000000001C385.11 3563.630000000001 388.03 3570.690000000001 393.24 3575.980000000001C398.39 3581.210000000001 405.16 3584.100000000001 412.29 3584.100000000001L435.01 3584.100000000001C436.89 3584.100000000001 438.43 3582.4700000000007 438.43 3580.460000000001L438.43 3580.380000000001L455.97 3580.380000000001C456.57000000000005 3580.380000000001 457.06 3579.860000000001 457.06 3579.220000000001L457.06 3571.780000000001C457.06 3571.1400000000012 456.57 3570.6200000000013 455.97 3570.6200000000013C455.37 3570.6200000000013 454.88000000000005 3571.1400000000012 454.88000000000005 3571.780000000001ZM425.17 3529.49C429.87 3532.24 433.72 3536.33 436.3 3541.3399999999997C436.57 3541.87 436.49 3542.5199999999995 436.1 3542.9399999999996L435.65000000000003 3543.4099999999994C434.42 3540.7199999999993 432.79 3538.2099999999996 430.8 3535.9899999999993C428.59000000000003 3533.5299999999993 426.06 3531.5499999999993 423.3 3530.0999999999995L423.67 3529.6999999999994C424.06 3529.2899999999995 424.67 3529.1999999999994 425.17 3529.4899999999993ZM435.01 3581.77L412.28999999999996 3581.77C398.65 3581.77 387.39 3570.24 387.18999999999994 3556.07C387.0799999999999 3548.94 389.63999999999993 3542.2400000000002 394.36999999999995 3537.2000000000003C399.00999999999993 3532.26 405.15999999999997 3529.55 411.7099999999999 3529.55C411.8399999999999 3529.55 411.9699999999999 3529.55 412.0999999999999 3529.55C425.4099999999999 3529.77 436.2399999999999 3541.76 436.2399999999999 3556.28L436.2399999999999 3580.46C436.2399999999999 3581.18 435.6899999999999 3581.77 435.0099999999999 3581.77Z " fill="#f8d49a" fill-opacity="1" transform="matrix(1,0,0,1,-384,-3526)"></path><path id="SvgjsPath1066" d="M418.73 3535.26C419.58000000000004 3535.5800000000004 420.41 3535.96 421.21000000000004 3536.4C421.37000000000006 3536.4900000000002 421.55 3536.53 421.71000000000004 3536.53C422.11 3536.53 422.49 3536.3 422.68000000000006 3535.9C422.96000000000004 3535.33 422.75000000000006 3534.63 422.2200000000001 3534.34C421.3300000000001 3533.8500000000004 420.4000000000001 3533.42 419.4600000000001 3533.07C418.8900000000001 3532.8500000000004 418.2600000000001 3533.17 418.0600000000001 3533.78C417.8600000000001 3534.38 418.16000000000014 3535.0400000000004 418.73000000000013 3535.26Z " fill="#f8d49a" fill-opacity="1" transform="matrix(1,0,0,1,-384,-3526)"></path><path id="SvgjsPath1067" d="M424.76 3537.24C424.28 3536.85 423.59999999999997 3536.9399999999996 423.23 3537.45C422.86 3537.96 422.95000000000005 3538.6899999999996 423.42 3539.08C425.8 3541.04 427.76 3543.58 429.09000000000003 3546.43C429.28000000000003 3546.8399999999997 429.66 3547.0699999999997 430.07000000000005 3547.0699999999997C430.2300000000001 3547.0699999999997 430.40000000000003 3547.0299999999997 430.55000000000007 3546.95C431.0900000000001 3546.66 431.31000000000006 3545.97 431.0400000000001 3545.39C429.57000000000005 3542.23 427.3900000000001 3539.41 424.7600000000001 3537.24Z " fill="#f8d49a" fill-opacity="1" transform="matrix(1,0,0,1,-384,-3526)"></path><path id="SvgjsPath1068" d="M418.93 3550.12C418.41 3550.44 418.23 3551.15 418.54 3551.71C419.25 3553.03 419.63 3554.54 419.63 3556.08C419.63 3560.91 415.94 3564.84 411.40999999999997 3564.84C406.86999999999995 3564.84 403.17999999999995 3560.9100000000003 403.17999999999995 3556.08C403.17999999999995 3551.25 406.86999999999995 3547.3199999999997 411.40999999999997 3547.3199999999997C413.29999999999995 3547.3199999999997 415.08 3547.99 416.54999999999995 3549.24C417.02 3549.6499999999996 417.71 3549.5699999999997 418.0799999999999 3549.06C418.4599999999999 3548.56 418.38999999999993 3547.83 417.9099999999999 3547.43C416.0799999999999 3545.8599999999997 413.7699999999999 3545 411.4099999999999 3545C405.6699999999999 3545 400.9999999999999 3549.97 400.9999999999999 3556.08C400.9999999999999 3562.19 405.6699999999999 3567.16 411.4099999999999 3567.16C417.1499999999999 3567.16 421.81999999999994 3562.19 421.81999999999994 3556.08C421.81999999999994 3554.13 421.3399999999999 3552.22 420.42999999999995 3550.54C420.11999999999995 3549.99 419.4599999999999 3549.8 418.92999999999995 3550.12Z " fill="#f8d49a" fill-opacity="1" transform="matrix(1,0,0,1,-384,-3526)"></path></svg>