<svg id="SvgjsSvg1037" xmlns="http://www.w3.org/2000/svg" version="1.1" xmlns:xlink="http://www.w3.org/1999/xlink" xmlns:svgjs="http://svgjs.com/svgjs" width="69" height="58" viewBox="0 0 69 58"><title>transport</title><desc>Created with Avocode.</desc><defs id="SvgjsDefs1038"></defs><path id="SvgjsPath1039" d="M1250.02 3552.93L1248.91 3539.02C1248.91 3535.7 1246.3400000000001 3533 1243.18 3533L1235.15 3533C1234.51 3533 1234 3533.54 1234 3534.2C1234 3534.87 1234.51 3535.41 1235.15 3535.41L1243.18 3535.41C1245.04 3535.41 1246.6200000000001 3537.06 1246.6200000000001 3539.12L1247.67 3552.2599999999998L1243.89 3552.2599999999998L1245.3500000000001 3549.1899999999996C1245.64 3548.5999999999995 1245.4 3547.8699999999994 1244.8400000000001 3547.5799999999995C1244.2700000000002 3547.2799999999993 1243.5800000000002 3547.5199999999995 1243.3000000000002 3548.1099999999997L1241.3200000000002 3552.2599999999998L1235.15 3552.2599999999998C1234.51 3552.2599999999998 1234 3552.7999999999997 1234 3553.47C1234 3554.1299999999997 1234.51 3554.6699999999996 1235.15 3554.6699999999996L1248.44 3554.6699999999996L1251.54 3557.93C1252.2 3558.62 1252.35 3560.2 1252.36 3560.69L1252.36 3561.9L1251.2099999999998 3561.9C1250.5799999999997 3561.9 1250.0599999999997 3562.44 1250.0599999999997 3563.1C1250.0599999999997 3563.7599999999998 1250.5799999999997 3564.2999999999997 1251.2099999999998 3564.2999999999997L1252.36 3564.2999999999997L1252.36 3573.9399999999996L1249.9699999999998 3573.9399999999996C1249.4099999999999 3569.8599999999997 1246.0699999999997 3566.7099999999996 1242.0299999999997 3566.7099999999996C1237.5999999999997 3566.7099999999996 1233.9999999999998 3570.49 1233.9999999999998 3575.1399999999994C1233.9999999999998 3579.7899999999995 1237.5999999999997 3583.5699999999993 1242.0299999999997 3583.5699999999993C1246.0699999999997 3583.5699999999993 1249.4099999999999 3580.419999999999 1249.9699999999998 3576.3399999999992L1253.4999999999998 3576.3399999999992C1254.1399999999999 3576.3399999999992 1254.6499999999999 3575.809999999999 1254.6499999999999 3575.1399999999994L1254.6499999999999 3560.6899999999996C1254.6499999999999 3560.3999999999996 1254.61 3557.74 1253.1699999999998 3556.2299999999996ZM1236.29 3575.14C1236.29 3571.8199999999997 1238.87 3569.12 1242.03 3569.12C1245.19 3569.12 1247.77 3571.8199999999997 1247.77 3575.14C1247.77 3578.46 1245.19 3581.16 1242.03 3581.16C1238.87 3581.16 1236.29 3578.46 1236.29 3575.14Z " fill="#f8d49a" fill-opacity="1" transform="matrix(1,0,0,1,-1186,-3526)"></path><path id="SvgjsPath1040" d="M1200 3575.61C1200 3577.6 1201.54 3579.2200000000003 1203.44 3579.2200000000003C1205.3400000000001 3579.2200000000003 1206.88 3577.6000000000004 1206.88 3575.61C1206.88 3573.6200000000003 1205.3400000000001 3572 1203.44 3572C1201.54 3572 1200 3573.62 1200 3575.61ZM1202.29 3575.61C1202.29 3574.9500000000003 1202.81 3574.4100000000003 1203.44 3574.4100000000003C1204.0700000000002 3574.4100000000003 1204.5900000000001 3574.9500000000003 1204.5900000000001 3575.61C1204.5900000000001 3576.28 1204.0700000000002 3576.82 1203.44 3576.82C1202.81 3576.82 1202.29 3576.28 1202.29 3575.61Z " fill="#f8d49a" fill-opacity="1" transform="matrix(1,0,0,1,-1186,-3526)"></path><path id="SvgjsPath1041" d="M1239 3575.61C1239 3577.6 1240.54 3579.2200000000003 1242.44 3579.2200000000003C1244.3400000000001 3579.2200000000003 1245.88 3577.6000000000004 1245.88 3575.61C1245.88 3573.6200000000003 1244.3400000000001 3572 1242.44 3572C1240.54 3572 1239 3573.62 1239 3575.61ZM1241.29 3575.61C1241.29 3574.9500000000003 1241.81 3574.4100000000003 1242.44 3574.4100000000003C1243.0700000000002 3574.4100000000003 1243.5900000000001 3574.9500000000003 1243.5900000000001 3575.61C1243.5900000000001 3576.28 1243.0700000000002 3576.82 1242.44 3576.82C1241.81 3576.82 1241.29 3576.28 1241.29 3575.61Z " fill="#f8d49a" fill-opacity="1" transform="matrix(1,0,0,1,-1186,-3526)"></path><path id="SvgjsPath1042" d="M1191.74 3526C1188.57 3526 1186 3528.7 1186 3532.02L1186 3570.55C1186 3573.9300000000003 1188.52 3576.57 1191.74 3576.57C1192.3700000000001 3576.57 1192.88 3576.03 1192.88 3575.3700000000003C1192.88 3574.7000000000003 1192.3700000000001 3574.1600000000003 1191.74 3574.1600000000003C1189.81 3574.1600000000003 1188.29 3572.57 1188.29 3570.55L1188.29 3532.02C1188.29 3530.03 1189.84 3528.41 1191.74 3528.41L1229.6 3528.41L1229.6 3562.12L1191.74 3562.12C1191.1 3562.12 1190.59 3562.66 1190.59 3563.33C1190.59 3563.99 1191.1 3564.5299999999997 1191.74 3564.5299999999997L1229.6 3564.5299999999997L1229.6 3574.16L1211.1499999999999 3574.16C1210.59 3570.08 1207.2499999999998 3566.94 1203.2099999999998 3566.94C1198.7799999999997 3566.94 1195.1799999999998 3570.7200000000003 1195.1799999999998 3575.37C1195.1799999999998 3580.0099999999998 1198.7799999999997 3583.79 1203.2099999999998 3583.79C1207.2499999999998 3583.79 1210.59 3580.65 1211.1499999999999 3576.57L1230.7399999999998 3576.57C1231.3799999999999 3576.57 1231.8899999999999 3576.03 1231.8899999999999 3575.3700000000003L1231.8899999999999 3527.2000000000003C1231.8899999999999 3526.5400000000004 1231.3799999999999 3526.0000000000005 1230.7399999999998 3526.0000000000005ZM1197.47 3575.37C1197.47 3572.0499999999997 1200.05 3569.35 1203.21 3569.35C1206.3700000000001 3569.35 1208.94 3572.0499999999997 1208.94 3575.37C1208.94 3578.69 1206.3700000000001 3581.39 1203.21 3581.39C1200.05 3581.39 1197.47 3578.69 1197.47 3575.37Z " fill="#f8d49a" fill-opacity="1" transform="matrix(1,0,0,1,-1186,-3526)"></path></svg>