<svg id="SvgjsSvg1052" xmlns="http://www.w3.org/2000/svg" version="1.1" xmlns:xlink="http://www.w3.org/1999/xlink" xmlns:svgjs="http://svgjs.com/svgjs" width="55" height="59" viewBox="0 0 55 59"><title>landscape copy</title><desc>Created with Avocode.</desc><defs id="SvgjsDefs1053"></defs><path id="SvgjsPath1054" d="M646.88 3556.17L636.28 3556.17C636.25 3552.03 635.75 3547.9 634.78 3543.89L635.4 3543.89L635.4 3542L626.56 3542L626.56 3543.89L627.18 3543.89C626.2099999999999 3547.9 625.7099999999999 3552.0299999999997 625.68 3556.17L615.0799999999999 3556.17C615.06 3552.03 614.55 3547.9 613.5799999999999 3543.89L614.1999999999999 3543.89L614.1999999999999 3542L605.3699999999999 3542L605.3699999999999 3543.89L605.9799999999999 3543.89C605.0099999999999 3547.9 604.5099999999999 3552.0299999999997 604.4899999999999 3556.17L593.8799999999999 3556.17L593.8799999999999 3582.62L592.9999999999999 3582.62L592.9999999999999 3584.5099999999998L647.7599999999999 3584.5099999999998L647.7599999999999 3582.62L646.8799999999999 3582.62ZM629.21 3582.62L629.21 3570.3399999999997L630.98 3570.3399999999997L630.98 3568.45L609.78 3568.45L609.78 3570.3399999999997L611.55 3570.3399999999997L611.55 3582.62L608.02 3582.62L608.02 3566.06L620.38 3561.89L632.75 3566.06L632.75 3582.62ZM613.31 3582.62L613.31 3570.3399999999997L619.5 3570.3399999999997L619.5 3582.62ZM621.26 3582.62L621.26 3570.3399999999997L627.45 3570.3399999999997L627.45 3582.62ZM633.89 3548.61C634.28 3551.11 634.5 3553.63 634.51 3556.17L627.45 3556.17C627.46 3553.63 627.6800000000001 3551.11 628.07 3548.61ZM612.69 3548.61C613.08 3551.11 613.3000000000001 3553.63 613.3100000000001 3556.17L606.2500000000001 3556.17C606.2600000000001 3553.63 606.4900000000001 3551.11 606.8700000000001 3548.61ZM632.96 3543.89C633.2 3544.83 633.4000000000001 3545.77 633.58 3546.72L628.38 3546.72C628.56 3545.77 628.77 3544.83 629 3543.89ZM611.76 3543.89C612 3544.83 612.2 3545.77 612.38 3546.72L607.18 3546.72C607.3599999999999 3545.77 607.5699999999999 3544.83 607.8 3543.89ZM634.51 3582.62L634.51 3566.66L636.9 3567.46L637.43 3565.66L620.38 3559.8999999999996L603.33 3565.66L603.87 3567.46L606.25 3566.66L606.25 3582.62L595.65 3582.62L595.65 3558.06L645.11 3558.06L645.11 3582.62Z " fill="#f8d49a" fill-opacity="1" transform="matrix(1,0,0,1,-593,-3526)"></path><path id="SvgjsPath1055" d="M622 3577L622 3574L624 3574L624 3577Z " fill="#f8d49a" fill-opacity="1" transform="matrix(1,0,0,1,-593,-3526)"></path><path id="SvgjsPath1056" d="M617 3577L617 3574L619 3574L619 3577Z " fill="#f8d49a" fill-opacity="1" transform="matrix(1,0,0,1,-593,-3526)"></path><path id="SvgjsPath1057" d="M614 3567L614 3565L616 3565L616 3567Z " fill="#f8d49a" fill-opacity="1" transform="matrix(1,0,0,1,-593,-3526)"></path><path id="SvgjsPath1058" d="M618 3567L618 3565L620 3565L620 3567Z " fill="#f8d49a" fill-opacity="1" transform="matrix(1,0,0,1,-593,-3526)"></path><path id="SvgjsPath1059" d="M621 3567L621 3565L623 3565L623 3567Z " fill="#f8d49a" fill-opacity="1" transform="matrix(1,0,0,1,-593,-3526)"></path><path id="SvgjsPath1060" d="M625 3567L625 3565L627 3565L627 3567Z " fill="#f8d49a" fill-opacity="1" transform="matrix(1,0,0,1,-593,-3526)"></path><path id="SvgjsPath1061" d="M610.77 3536.39C610.77 3535.87 611.16 3535.45 611.65 3535.45L621.37 3535.45L623.13 3535.45L630.36 3535.45C630.26 3535.74 630.2 3536.06 630.2 3536.39L630.2 3540.17L631.96 3540.17L631.96 3536.39C631.96 3535.87 632.36 3535.45 632.85 3535.45L635.5 3535.45L638.15 3535.45C639.61 3535.45 640.8 3534.18 640.8 3532.6099999999997C640.8 3531.0499999999997 639.6099999999999 3529.7799999999997 638.15 3529.7799999999997L633.73 3529.7799999999997C633.24 3529.7799999999997 632.85 3529.35 632.85 3528.83C632.85 3528.31 633.24 3527.89 633.73 3527.89L646.1 3527.89L646.1 3526L633.73 3526C632.27 3526 631.08 3527.27 631.08 3528.83C631.08 3530.4 632.2700000000001 3531.67 633.73 3531.67L638.15 3531.67C638.63 3531.67 639.03 3532.09 639.03 3532.61C639.03 3533.13 638.63 3533.56 638.15 3533.56L635.5 3533.56L632.85 3533.56L625.62 3533.56C625.72 3533.2599999999998 625.78 3532.95 625.78 3532.61C625.78 3531.05 624.5899999999999 3529.78 623.13 3529.78L618.72 3529.78C618.23 3529.78 617.83 3529.3500000000004 617.83 3528.8300000000004C617.83 3528.3100000000004 618.23 3527.8900000000003 618.72 3527.8900000000003L626.6600000000001 3527.8900000000003L626.6600000000001 3526.0000000000005L618.72 3526.0000000000005C617.25 3526.0000000000005 616.07 3527.2700000000004 616.07 3528.8300000000004C616.07 3530.4000000000005 617.25 3531.6700000000005 618.72 3531.6700000000005L623.13 3531.6700000000005C623.62 3531.6700000000005 624.02 3532.0900000000006 624.02 3532.6100000000006C624.02 3533.1300000000006 623.62 3533.5600000000004 623.13 3533.5600000000004L621.37 3533.5600000000004L611.65 3533.5600000000004C610.1899999999999 3533.5600000000004 609 3534.8300000000004 609 3536.3900000000003L609 3540.1700000000005L610.77 3540.1700000000005Z " fill="#f8d49a" fill-opacity="1" transform="matrix(1,0,0,1,-593,-3526)"></path></svg>