<svg id="SvgjsSvg1034" xmlns="http://www.w3.org/2000/svg" version="1.1" xmlns:xlink="http://www.w3.org/1999/xlink" xmlns:svgjs="http://svgjs.com/svgjs" width="66" height="60" viewBox="0 0 66 60"><title>Capa_1</title><desc>Created with Avocode.</desc><defs id="SvgjsDefs1035"></defs><path id="SvgjsPath1036" d="M849.76 3568.2C847.68 3565.74 844.5699999999999 3564.49 841.45 3564.85C838.96 3565.14 836.48 3564.56 834.34 3563.23C837.2 3559.98 839.0300000000001 3555.84 839.5400000000001 3551.46L841.6300000000001 3549.27C841.9700000000001 3548.92 841.9700000000001 3548.34 841.6300000000001 3547.99C841.2900000000001 3547.6299999999997 840.7400000000001 3547.6299999999997 840.4000000000001 3547.99L838.0900000000001 3550.3999999999996C837.9400000000002 3550.5399999999995 837.8600000000001 3550.74 837.8400000000001 3550.9399999999996C837.4100000000002 3555.1399999999994 835.6700000000002 3559.1099999999997 832.9000000000001 3562.1799999999994C832.58 3561.9099999999994 823.1000000000001 3552.0599999999995 823.1000000000001 3552.0599999999995C824.9900000000001 3552.0199999999995 826.7700000000001 3551.2299999999996 828.1100000000001 3549.8299999999995C828.4500000000002 3549.4799999999996 828.4500000000002 3548.8999999999996 828.1100000000001 3548.5399999999995C827.7700000000001 3548.1899999999996 827.2200000000001 3548.1899999999996 826.8800000000001 3548.5399999999995C825.8300000000002 3549.6399999999994 824.4300000000001 3550.2499999999995 822.94 3550.2499999999995C821.57 3550.2499999999995 820.2800000000001 3549.7299999999996 819.2600000000001 3548.7999999999997C819.2100000000002 3548.74 815.9100000000001 3545.2999999999997 815.9100000000001 3545.2999999999997C815.5600000000001 3544.9399999999996 815.0100000000001 3544.9399999999996 814.6700000000001 3545.2999999999997C814.33 3545.6499999999996 814.33 3546.2299999999996 814.6700000000001 3546.58C814.6700000000001 3546.58 817.9300000000001 3550 818.0100000000001 3550.08C818.3900000000001 3550.54 818.6000000000001 3551.12 818.6000000000001 3551.74C818.6000000000001 3552.4199999999996 818.3400000000001 3553.0699999999997 817.8700000000001 3553.56C817.4100000000001 3554.04 816.7900000000001 3554.31 816.1300000000001 3554.31C815.4700000000001 3554.31 814.8400000000001 3554.04 814.3800000000001 3553.56L809.2100000000002 3548.17C808.6200000000001 3547.56 808.6200000000001 3546.56 809.2100000000002 3545.9500000000003L814.4200000000002 3540.5200000000004C816.4300000000002 3538.4200000000005 819.3100000000002 3537.4700000000003 822.1100000000002 3537.9600000000005L822.1400000000002 3537.9700000000007C824.3700000000002 3538.3600000000006 826.6600000000002 3537.600000000001 828.2600000000002 3535.9300000000007C828.6000000000003 3535.5700000000006 828.6000000000003 3535.000000000001 828.2600000000002 3534.640000000001C827.9200000000002 3534.290000000001 827.3700000000002 3534.290000000001 827.0200000000002 3534.640000000001C825.8200000000002 3535.900000000001 824.1100000000002 3536.4700000000007 822.4300000000002 3536.170000000001L822.4000000000002 3536.170000000001C819.0400000000002 3535.580000000001 815.6000000000003 3536.720000000001 813.1900000000002 3539.230000000001L811.9900000000001 3540.480000000001L809.5500000000001 3537.940000000001C808.23 3536.570000000001 807.23 3534.840000000001 806.6400000000001 3532.9300000000007C806.1700000000001 3531.4100000000008 805.3800000000001 3530.0700000000006 804.2900000000001 3528.9300000000007C802.4300000000001 3527.000000000001 799.97 3525.960000000001 797.34 3526.000000000001C794.71 3526.040000000001 792.2800000000001 3527.170000000001 790.48 3529.170000000001C790.27 3529.390000000001 790.19 3529.720000000001 790.27 3530.020000000001C790.35 3530.320000000001 790.5699999999999 3530.560000000001 790.85 3530.6600000000008L796.14 3532.3800000000006C797.72 3532.890000000001 798.6 3534.640000000001 798.11 3536.2800000000007C797.62 3537.9200000000005 795.94 3538.8400000000006 794.36 3538.330000000001L789.13 3536.630000000001C788.84 3536.530000000001 788.53 3536.600000000001 788.3 3536.810000000001C788.0699999999999 3537.020000000001 787.9599999999999 3537.330000000001 788.01 3537.640000000001C788.3 3539.500000000001 789.08 3541.2200000000007 790.26 3542.620000000001C792.34 3545.080000000001 795.4399999999999 3546.330000000001 798.56 3545.9700000000007C801.9799999999999 3545.5700000000006 805.38 3546.8200000000006 807.91 3549.3800000000006C807.93 3549.4100000000008 808.9699999999999 3550.4900000000007 808.9699999999999 3550.4900000000007L805.05 3554.580000000001C803.5 3556.2000000000007 803.5 3558.830000000001 805.05 3560.4500000000007C805.77 3561.1900000000005 806.7099999999999 3561.620000000001 807.7299999999999 3561.6600000000008C807.3199999999999 3563.0700000000006 807.6599999999999 3564.6600000000008 808.7199999999999 3565.770000000001C809.4999999999999 3566.580000000001 810.5199999999999 3566.980000000001 811.54 3566.980000000001C811.93 3566.980000000001 812.3199999999999 3566.920000000001 812.6999999999999 3566.800000000001C812.7399999999999 3567.8500000000013 813.15 3568.8300000000013 813.8699999999999 3569.570000000001C814.6199999999999 3570.3500000000013 815.6199999999999 3570.780000000001 816.6799999999998 3570.780000000001C817.5199999999999 3570.780000000001 818.3199999999998 3570.510000000001 818.9899999999998 3570.010000000001C819.1299999999998 3570.8500000000013 819.5099999999998 3571.6200000000013 820.0999999999998 3572.230000000001C820.8499999999998 3573.010000000001 821.8499999999998 3573.4500000000007 822.9099999999997 3573.4500000000007C823.9799999999998 3573.4400000000005 824.9799999999998 3573.0100000000007 825.7299999999998 3572.230000000001L827.7899999999997 3570.090000000001L830.4699999999997 3572.880000000001C831.7799999999996 3574.250000000001 832.7899999999997 3575.980000000001 833.3799999999997 3577.8900000000012C833.8499999999997 3579.410000000001 834.6399999999996 3580.7500000000014 835.7299999999997 3581.8900000000012C837.5499999999997 3583.780000000001 839.9499999999997 3584.820000000001 842.5199999999996 3584.820000000001C842.5699999999996 3584.820000000001 842.6199999999997 3584.820000000001 842.6799999999996 3584.820000000001C845.2999999999996 3584.780000000001 847.7399999999996 3583.650000000001 849.5399999999996 3581.650000000001C849.7399999999997 3581.430000000001 849.8199999999996 3581.100000000001 849.7399999999997 3580.800000000001C849.6699999999996 3580.500000000001 849.4499999999997 3580.260000000001 849.1599999999996 3580.160000000001L843.8699999999997 3578.450000000001C842.2999999999996 3577.930000000001 841.4199999999996 3576.180000000001 841.9099999999996 3574.5400000000013C842.1499999999996 3573.7500000000014 842.6699999999996 3573.0900000000015 843.3699999999997 3572.7100000000014C844.0799999999997 3572.3200000000015 844.8899999999996 3572.2400000000016 845.6499999999996 3572.4900000000016L850.8799999999997 3574.1900000000014C851.1699999999996 3574.2900000000013 851.4899999999997 3574.2200000000016 851.7099999999997 3574.0100000000016C851.9399999999997 3573.8000000000015 852.0499999999997 3573.4900000000016 851.9999999999997 3573.1800000000017C851.7099999999997 3571.3200000000015 850.9399999999997 3569.6000000000017 849.7599999999996 3568.2000000000016ZM791.57 3541.42C790.9300000000001 3540.66 790.44 3539.79 790.11 3538.85L793.84 3540.06C795.0500000000001 3540.46 796.33 3540.33 797.45 3539.72C798.57 3539.1099999999997 799.4000000000001 3538.08 799.7700000000001 3536.8199999999997C800.5500000000001 3534.22 799.1600000000001 3531.45 796.6600000000001 3530.64L792.84 3529.4C794.15 3528.4 795.71 3527.85 797.37 3527.82C797.41 3527.82 797.45 3527.82 797.5 3527.82C799.6 3527.82 801.57 3528.67 803.05 3530.2200000000003C803.9499999999999 3531.15 804.5899999999999 3532.2500000000005 804.9799999999999 3533.4900000000002C805.6499999999999 3535.67 806.8 3537.65 808.31 3539.2200000000003L810.75 3541.7700000000004L807.97 3544.6600000000003C807.51 3545.15 807.22 3545.7500000000005 807.09 3546.3700000000003C804.51 3544.6000000000004 801.45 3543.8 798.37 3544.1600000000003C795.8100000000001 3544.4600000000005 793.27 3543.4300000000003 791.57 3541.4200000000005ZM809.96 3561.19L814.98 3555.96C815.35 3556.07 815.73 3556.13 816.13 3556.13C817.25 3556.13 818.31 3555.67 819.11 3554.84C819.34 3554.6000000000004 819.54 3554.34 819.7 3554.06C819.75 3554.1 819.8000000000001 3554.14 819.84 3554.19C820.26 3554.63 820.5 3555.21 820.5 3555.83C820.5 3556.45 820.26 3557.04 819.84 3557.48L813.12 3564.4900000000002C812.25 3565.3900000000003 810.83 3565.3900000000003 809.96 3564.4900000000002C809.09 3563.5800000000004 809.09 3562.1000000000004 809.96 3561.19ZM815.1 3568.28C814.6800000000001 3567.8500000000004 814.45 3567.26 814.45 3566.6400000000003C814.45 3566.0200000000004 814.6800000000001 3565.4300000000003 815.1 3564.9900000000002L821.08 3558.76C821.51 3558.3100000000004 822.08 3558.0800000000004 822.6600000000001 3558.0800000000004C823.2300000000001 3558.0800000000004 823.8000000000001 3558.3100000000004 824.2400000000001 3558.76C825.1100000000001 3559.67 825.1100000000001 3561.15 824.2400000000001 3562.0600000000004L818.2600000000001 3568.28C817.8400000000001 3568.7200000000003 817.2800000000001 3568.9700000000003 816.6800000000001 3568.9700000000003C816.08 3568.9700000000003 815.5200000000001 3568.7200000000003 815.1 3568.28ZM822.91 3571.63C822.3199999999999 3571.63 821.76 3571.3900000000003 821.3299999999999 3570.9500000000003C820.4599999999999 3570.0400000000004 820.4599999999999 3568.5600000000004 821.3299999999999 3567.65C821.3399999999999 3567.65 825.5999999999999 3563.21 825.5999999999999 3563.21C826.0199999999999 3562.77 826.5899999999999 3562.52 827.18 3562.52C827.78 3562.52 828.3399999999999 3562.77 828.76 3563.21C829.63 3564.11 829.63 3565.59 828.76 3566.5L824.49 3570.95C824.07 3571.39 823.51 3571.6299999999997 822.91 3571.6299999999997ZM806.28 3555.87L810.1999999999999 3551.7799999999997C810.1999999999999 3551.7799999999997 813.3 3554.99 813.3699999999999 3555.06L809.4399999999999 3559.16C809.02 3559.6 808.4599999999999 3559.8399999999997 807.8599999999999 3559.8399999999997C807.2599999999999 3559.8399999999997 806.6999999999999 3559.6 806.2799999999999 3559.16C805.8599999999999 3558.72 805.6299999999999 3558.14 805.6299999999999 3557.5099999999998C805.6299999999999 3556.89 805.8599999999999 3556.31 806.2799999999999 3555.87ZM842.56 3571.1C841.4399999999999 3571.71 840.6199999999999 3572.74 840.2399999999999 3574C839.8599999999999 3575.26 839.9799999999999 3576.59 840.5699999999999 3577.76C841.16 3578.9300000000003 842.15 3579.7900000000004 843.3499999999999 3580.1800000000003L847.17 3581.42C845.87 3582.42 844.3 3582.9700000000003 842.65 3583C840.5 3583.04 838.48 3582.19 836.9599999999999 3580.6C836.0699999999999 3579.67 835.42 3578.5699999999997 835.04 3577.33C834.37 3575.15 833.2099999999999 3573.17 831.6999999999999 3571.6L829.02 3568.7999999999997L830 3567.7799999999997C831.55 3566.1699999999996 831.55 3563.54 830 3561.9199999999996C829.24 3561.1399999999994 828.24 3560.7099999999996 827.18 3560.7099999999996C826.9899999999999 3560.7099999999996 826.8 3560.72 826.62 3560.7499999999995C826.71 3559.5799999999995 826.33 3558.3699999999994 825.47 3557.4799999999996C824.58 3556.5499999999997 823.38 3556.1599999999994 822.22 3556.2899999999995C822.23 3556.1399999999994 822.24 3555.9899999999993 822.24 3555.8299999999995C822.24 3554.7199999999993 821.83 3553.6799999999994 821.08 3552.8999999999996C820.84 3552.66 820.59 3552.45 820.3100000000001 3552.2799999999997C820.33 3552.1099999999997 820.34 3551.93 820.34 3551.7499999999995L830.75 3562.5999999999995C833.67 3565.6399999999994 837.64 3567.1199999999994 841.65 3566.6599999999994C844.1999999999999 3566.359999999999 846.74 3567.3899999999994 848.4499999999999 3569.399999999999C849.0799999999999 3570.1599999999994 849.5799999999999 3571.0299999999993 849.91 3571.9699999999993L846.17 3570.7599999999993C844.9699999999999 3570.359999999999 843.68 3570.4899999999993 842.56 3571.0999999999995Z " fill="#f8d49a" fill-opacity="1" transform="matrix(1,0,0,1,-787,-3525)"></path></svg>