<svg id="SvgjsSvg1024" xmlns="http://www.w3.org/2000/svg" version="1.1" xmlns:xlink="http://www.w3.org/1999/xlink" xmlns:svgjs="http://svgjs.com/svgjs" width="53" height="56" viewBox="0 0 53 56"><title>Layer_1</title><desc>Created with Avocode.</desc><defs id="SvgjsDefs1025"></defs><path id="SvgjsPath1026" d="M1044.22 2696.32C1044.58 2696.32 1044.92 2696.1000000000004 1045.07 2695.77C1045.21 2695.43 1045.1499999999999 2695.04 1044.8999999999999 2694.77L1044.2199999999998 2694.02L1044.2199999999998 2676C1044.2199999999998 2675.49 1043.7999999999997 2675.08 1043.2899999999997 2675.08L1016.3199999999997 2675.08L1016.3199999999997 2664.92C1016.3199999999997 2664.41 1015.8999999999997 2664 1015.3899999999998 2664L996.7899999999997 2664C996.2799999999997 2664 995.8599999999998 2664.41 995.8599999999998 2664.92L995.8599999999998 2694.02L995.1699999999997 2694.77C994.9199999999997 2695.04 994.8599999999998 2695.43 995.0099999999998 2695.77C995.1599999999997 2696.1 995.4899999999998 2696.32 995.8599999999998 2696.32L995.8599999999998 2717.55L993.9999999999998 2717.55L993.9999999999998 2719.4L1046.0799999999997 2719.4L1046.0799999999997 2717.55L1044.2199999999998 2717.55ZM1039.57 2717.55L1039.57 2700.01C1039.57 2699.5 1039.1499999999999 2699.09 1038.6399999999999 2699.09L1001.4399999999998 2699.09C1000.9299999999998 2699.09 1000.5099999999999 2699.5 1000.5099999999999 2700.01L1000.5099999999999 2717.55L997.7199999999999 2717.55L997.7199999999999 2696.32L1042.36 2696.32L1042.36 2717.55ZM1014.46 2665.85L1014.46 2684.31L1005.1600000000001 2684.31C1004.9000000000001 2684.31 1004.6500000000001 2684.42 1004.47 2684.62L997.72 2691.99L997.72 2665.85ZM1042.11 2694.47L997.9599999999999 2694.47L1005.5699999999999 2686.16L1034.51 2686.16ZM1033.06 2717.55L1033.06 2705.55L1037.71 2705.55L1037.71 2717.55ZM1008.88 2717.55L1008.88 2705.55L1013.53 2705.55L1013.53 2717.55ZM1015.39 2717.55L1015.39 2705.55L1020.04 2705.55L1020.04 2717.55ZM1002.37 2717.55L1002.37 2705.55L1007.02 2705.55L1007.02 2717.55ZM1027.48 2717.55L1027.48 2705.55L1031.2 2705.55L1031.2 2717.55ZM1021.9 2717.55L1021.9 2705.55L1025.62 2705.55L1025.62 2717.55ZM1033.06 2703.7L1033.06 2700.93L1037.71 2700.93L1037.71 2703.7ZM1002.37 2703.7L1002.37 2700.93L1007.02 2700.93L1007.02 2703.7ZM1008.88 2703.7L1008.88 2700.93L1013.53 2700.93L1013.53 2703.7ZM1015.39 2703.7L1015.39 2700.93L1020.04 2700.93L1020.04 2703.7ZM1027.48 2703.7L1027.48 2700.93L1031.2 2700.93L1031.2 2703.7ZM1021.9 2703.7L1021.9 2700.93L1025.62 2700.93L1025.62 2703.7ZM1035.6 2684.62C1035.4299999999998 2684.42 1035.1799999999998 2684.31 1034.9199999999998 2684.31L1016.3199999999998 2684.31L1016.3199999999998 2676.93L1042.36 2676.93L1042.36 2691.99Z " fill="#ff9b00" fill-opacity="1" transform="matrix(1,0,0,1,-994,-2664)"></path><path id="SvgjsPath1027" d="M1022.93 2669C1022.42 2669 1022 2669.41 1022 2669.92L1022 2683.8C1022 2684.3100000000004 1022.42 2684.73 1022.93 2684.73C1023.4399999999999 2684.73 1023.8599999999999 2684.31 1023.8599999999999 2683.8L1023.8599999999999 2669.92C1023.8599999999999 2669.41 1023.4399999999999 2669 1022.93 2669Z " fill="#ff9b00" fill-opacity="1" transform="matrix(1,0,0,1,-994,-2664)"></path><path id="SvgjsPath1028" d="M1025.93 2669C1025.42 2669 1025 2669.41 1025 2669.92L1025 2681.9300000000003C1025 2682.4400000000005 1025.42 2682.8500000000004 1025.93 2682.8500000000004C1026.44 2682.8500000000004 1026.8600000000001 2682.4400000000005 1026.8600000000001 2681.9300000000003L1026.8600000000001 2669.92C1026.8600000000001 2669.41 1026.44 2669 1025.93 2669Z " fill="#ff9b00" fill-opacity="1" transform="matrix(1,0,0,1,-994,-2664)"></path><path id="SvgjsPath1029" d="M1029.93 2669C1029.42 2669 1029 2669.41 1029 2669.92L1029 2680.08C1029 2680.59 1029.42 2681 1029.93 2681C1030.44 2681 1030.8600000000001 2680.59 1030.8600000000001 2680.08L1030.8600000000001 2669.92C1030.8600000000001 2669.41 1030.44 2669 1029.93 2669Z " fill="#ff9b00" fill-opacity="1" transform="matrix(1,0,0,1,-994,-2664)"></path><path id="SvgjsPath1030" d="M1033.93 2669C1033.42 2669 1033 2669.41 1033 2669.92L1033 2677.31C1033 2677.82 1033.42 2678.23 1033.93 2678.23C1034.44 2678.23 1034.8600000000001 2677.82 1034.8600000000001 2677.31L1034.8600000000001 2669.92C1034.8600000000001 2669.41 1034.44 2669 1033.93 2669Z " fill="#ff9b00" fill-opacity="1" transform="matrix(1,0,0,1,-994,-2664)"></path></svg>