<svg id="SvgjsSvg1019" xmlns="http://www.w3.org/2000/svg" version="1.1" xmlns:xlink="http://www.w3.org/1999/xlink" xmlns:svgjs="http://svgjs.com/svgjs" width="43" height="54" viewBox="0 0 43 54"><title>icon</title><desc>Created with Avocode.</desc><defs id="SvgjsDefs1020"></defs><path id="SvgjsPath1021" d="M1220.99 2665.31C1220.64 2664.9 1219.92 2664.9 1219.57 2665.31C1219.51 2665.38 1213.52 2672.18 1199.9299999999998 2672.18C1199.4099999999999 2672.18 1198.9999999999998 2672.5899999999997 1198.9999999999998 2673.08L1198.9999999999998 2690.2599999999998C1198.9999999999998 2699.66 1203.3399999999997 2708.58 1210.6099999999997 2714.14C1213.5399999999997 2716.3799999999997 1216.7099999999996 2718 1220.0199999999998 2718.95C1220.1099999999997 2718.98 1220.1899999999998 2718.99 1220.2799999999997 2718.99C1220.3699999999997 2718.99 1220.4599999999998 2718.9799999999996 1220.5499999999997 2718.95C1223.8599999999997 2718 1227.0299999999997 2716.3799999999997 1229.9599999999998 2714.14C1237.2299999999998 2708.58 1241.5699999999997 2699.66 1241.5699999999997 2690.2599999999998L1241.5699999999997 2673.0899999999997C1241.5699999999997 2672.5899999999997 1241.1499999999996 2672.1899999999996 1240.6399999999996 2672.1899999999996C1227.1299999999997 2672.1899999999996 1221.0799999999997 2665.3999999999996 1220.9899999999996 2665.3099999999995ZM1228.81 2712.72C1226.1399999999999 2714.7599999999998 1223.28 2716.25 1220.28 2717.1499999999996C1217.29 2716.2499999999995 1214.42 2714.7599999999998 1211.75 2712.72C1204.93 2707.5 1200.85 2699.1099999999997 1200.85 2690.27L1200.85 2673.98C1212.1799999999998 2673.73 1218.31 2669.03 1220.28 2667.18C1222.26 2669.0299999999997 1228.3899999999999 2673.73 1239.72 2673.98L1239.72 2690.27C1239.72 2699.11 1235.64 2707.5 1228.81 2712.72Z " fill="#ff9b00" fill-opacity="1" transform="matrix(1,0,0,1,-1199,-2665)"></path><path id="SvgjsPath1022" d="M1205.81 2677.23C1205.35 2677.28 1205 2677.67 1205 2678.12L1205 2690.23C1205 2697.98 1208.55 2705.32 1214.49 2709.86C1216.36 2711.29 1218.35 2712.4100000000003 1220.39 2713.19C1220.5 2713.23 1220.6200000000001 2713.26 1220.73 2713.26C1220.85 2713.26 1220.96 2713.23 1221.07 2713.19C1223.11 2712.41 1225.1 2711.29 1226.97 2709.86C1232.91 2705.32 1236.46 2697.98 1236.46 2690.23L1236.46 2678.12C1236.46 2677.67 1236.1200000000001 2677.2799999999997 1235.65 2677.23C1228.8000000000002 2676.38 1224.0400000000002 2674 1221.25 2672.16C1220.94 2671.95 1220.52 2671.95 1220.21 2672.16C1217.42 2674 1212.66 2676.3799999999997 1205.81 2677.23ZM1234.61 2690.23C1234.61 2697.43 1231.33 2704.2400000000002 1225.83 2708.44C1224.1999999999998 2709.69 1222.49 2710.67 1220.73 2711.38C1218.97 2710.67 1217.26 2709.69 1215.63 2708.44C1210.13 2704.2400000000002 1206.8500000000001 2697.43 1206.8500000000001 2690.23L1206.8500000000001 2678.9C1213.2300000000002 2677.98 1217.8400000000001 2675.8 1220.7300000000002 2673.98C1223.6200000000003 2675.8 1228.2300000000002 2677.98 1234.6100000000004 2678.9Z " fill="#ff9b00" fill-opacity="1" transform="matrix(1,0,0,1,-1199,-2665)"></path><path id="SvgjsPath1023" d="M1211.58 2691.46C1211.22 2691.11 1210.6299999999999 2691.11 1210.27 2691.46C1209.91 2691.82 1209.91 2692.39 1210.27 2692.7400000000002L1217.67 2699.94C1217.8500000000001 2700.11 1218.0800000000002 2700.2000000000003 1218.3300000000002 2700.2000000000003C1218.3400000000001 2700.2000000000003 1218.3500000000001 2700.2000000000003 1218.3600000000001 2700.2000000000003C1218.6200000000001 2700.19 1218.8600000000001 2700.0800000000004 1219.0200000000002 2699.9L1231.9800000000002 2685.4900000000002C1232.3200000000002 2685.1200000000003 1232.2800000000002 2684.55 1231.8900000000003 2684.2200000000003C1231.5100000000002 2683.9 1230.9200000000003 2683.9300000000003 1230.5900000000004 2684.3100000000004L1218.2800000000004 2697.9900000000002Z " fill="#ff9b00" fill-opacity="1" transform="matrix(1,0,0,1,-1199,-2665)"></path></svg>