<svg id="SvgjsSvg1013" xmlns="http://www.w3.org/2000/svg" version="1.1" xmlns:xlink="http://www.w3.org/1999/xlink" xmlns:svgjs="http://svgjs.com/svgjs" width="55" height="56" viewBox="0 0 55 56"><title>icon</title><desc>Created with Avocode.</desc><defs id="SvgjsDefs1014"></defs><path id="SvgjsPath1015" d="M632.39 2699.71L632.1999999999999 2698.73C631.9699999999999 2697.62 631.15 2696.72 630.06 2696.38C628.9599999999999 2696.05 627.78 2696.35 626.9699999999999 2697.1600000000003L625.7699999999999 2698.3500000000004L622.1099999999999 2694.7100000000005L633.4699999999999 2683.3900000000003C634.43 2682.4300000000003 635.66 2681.6900000000005 636.9999999999999 2681.26C638.1799999999998 2680.88 639.2799999999999 2680.21 640.1599999999999 2679.3300000000004C641.6799999999998 2677.8100000000004 642.4999999999999 2675.8 642.4699999999998 2673.6500000000005C642.4299999999998 2671.5000000000005 641.5499999999998 2669.5100000000007 639.9699999999998 2668.0300000000007C639.6899999999998 2667.7700000000004 639.2899999999998 2667.6700000000005 638.9199999999998 2667.7700000000004C638.5399999999998 2667.8600000000006 638.2499999999999 2668.1500000000005 638.1299999999999 2668.5200000000004L636.8499999999999 2672.6000000000004C636.6999999999999 2673.07 636.3799999999999 2673.4600000000005 635.9399999999999 2673.6900000000005C635.4899999999999 2673.9200000000005 634.9899999999999 2673.9700000000007 634.51 2673.8200000000006C634.04 2673.6700000000005 633.65 2673.350000000001 633.41 2672.9100000000008C633.18 2672.4700000000007 633.14 2671.960000000001 633.29 2671.4900000000007L634.55 2667.4500000000007C634.66 2667.080000000001 634.5799999999999 2666.6800000000007 634.3199999999999 2666.390000000001C634.0699999999999 2666.0900000000006 633.68 2665.9500000000007 633.29 2666.0100000000007C631.8299999999999 2666.2500000000005 630.48 2666.890000000001 629.37 2667.850000000001C627.43 2669.5500000000006 626.44 2672.0900000000006 626.73 2674.650000000001C627.02 2677.190000000001 626.1 2679.720000000001 624.23 2681.590000000001L616.59 2689.210000000001L600.82 2673.490000000001L601.0600000000001 2670.210000000001C601.09 2669.780000000001 600.87 2669.370000000001 600.49 2669.150000000001L595.73 2666.440000000001C595.28 2666.190000000001 594.73 2666.260000000001 594.37 2666.620000000001L592.33 2668.650000000001C591.97 2669.010000000001 591.9000000000001 2669.560000000001 592.1500000000001 2670.000000000001L594.8700000000001 2674.750000000001C595.0700000000002 2675.100000000001 595.4500000000002 2675.320000000001 595.8500000000001 2675.320000000001C595.8700000000001 2675.320000000001 595.9000000000001 2675.320000000001 595.9300000000002 2675.310000000001L599.2300000000001 2675.080000000001L615.0000000000001 2690.790000000001L603.6400000000001 2702.110000000001C602.6700000000001 2703.070000000001 601.45 2703.810000000001 600.1000000000001 2704.240000000001C598.9200000000002 2704.6200000000013 597.8300000000002 2705.2900000000013 596.9500000000002 2706.170000000001C595.4200000000002 2707.680000000001 594.6000000000001 2709.700000000001 594.6400000000002 2711.850000000001C594.6700000000002 2714.000000000001 595.5600000000002 2715.9900000000007 597.1300000000002 2717.4700000000007C597.4100000000002 2717.730000000001 597.8100000000002 2717.830000000001 598.1900000000002 2717.730000000001C598.5600000000002 2717.630000000001 598.8600000000001 2717.350000000001 598.9800000000001 2716.980000000001L600.2500000000001 2712.900000000001C600.5600000000001 2711.920000000001 601.6100000000001 2711.370000000001 602.5900000000001 2711.680000000001C603.0700000000002 2711.8300000000013 603.4600000000002 2712.150000000001 603.6900000000002 2712.590000000001C603.9200000000002 2713.030000000001 603.9700000000001 2713.530000000001 603.8200000000002 2714.010000000001L602.5600000000002 2718.0400000000013C602.4400000000002 2718.410000000001 602.5300000000002 2718.8200000000015 602.7800000000002 2719.1100000000015C603.0000000000002 2719.3600000000015 603.3100000000002 2719.5000000000014 603.6300000000002 2719.5000000000014C603.6900000000002 2719.5000000000014 603.7500000000002 2719.490000000001 603.8100000000002 2719.4800000000014C605.2700000000002 2719.2500000000014 606.6300000000002 2718.6100000000015 607.7300000000001 2717.6400000000012C609.6700000000002 2715.9400000000014 610.6600000000001 2713.410000000001 610.3700000000001 2710.8500000000013C610.0900000000001 2708.3100000000013 611.0000000000001 2705.780000000001 612.8700000000001 2703.910000000001L620.5200000000001 2696.2900000000013L624.1800000000001 2699.9400000000014L622.97 2701.1400000000012C622.1700000000001 2701.9400000000014 621.87 2703.1200000000013 622.2 2704.2100000000014C622.5300000000001 2705.3100000000013 623.44 2706.1200000000013 624.5600000000001 2706.3500000000013L625.5400000000001 2706.5400000000013L638.6300000000001 2719.5900000000015C639.5800000000002 2720.5300000000016 640.8200000000002 2721.0000000000014 642.0600000000001 2721.0000000000014C643.3000000000001 2721.0000000000014 644.5400000000001 2720.5300000000016 645.49 2719.5900000000015C647.38 2717.7100000000014 647.38 2714.6400000000017 645.49 2712.7600000000016ZM608.14 2711.1C608.34 2712.93 607.64 2714.74 606.25 2715.96C605.97 2716.2 605.68 2716.41 605.37 2716.59L605.97 2714.6800000000003C606.2900000000001 2713.63 606.19 2712.5200000000004 605.6800000000001 2711.55C605.1700000000001 2710.5800000000004 604.3100000000001 2709.86 603.2600000000001 2709.54C602.8600000000001 2709.41 602.44 2709.35 602.0300000000001 2709.35C601.3700000000001 2709.35 600.7200000000001 2709.5099999999998 600.1200000000001 2709.8199999999997C599.1500000000001 2710.33 598.4300000000001 2711.1899999999996 598.1100000000001 2712.2299999999996L597.4800000000001 2714.24C597.1000000000001 2713.5 596.9000000000001 2712.6699999999996 596.8900000000001 2711.8199999999997C596.8600000000001 2710.2799999999997 597.45 2708.8399999999997 598.5400000000001 2707.7499999999995C599.1800000000001 2707.1099999999997 599.94 2706.6499999999996 600.7900000000001 2706.3799999999997C602.4800000000001 2705.8399999999997 604.0100000000001 2704.91 605.2300000000001 2703.6899999999996L625.8200000000002 2683.1799999999994C628.1800000000002 2680.8199999999993 629.3300000000002 2677.6199999999994 628.9700000000001 2674.399999999999C628.7600000000001 2672.5699999999993 629.4700000000001 2670.749999999999 630.8600000000001 2669.539999999999C631.1300000000001 2669.2999999999993 631.4300000000002 2669.0899999999992 631.7400000000001 2668.909999999999L631.1400000000001 2670.819999999999C630.8100000000001 2671.869999999999 630.9100000000001 2672.9799999999987 631.4200000000001 2673.949999999999C631.9300000000001 2674.9199999999987 632.7900000000001 2675.6299999999987 633.84 2675.959999999999C634.89 2676.289999999999 636.01 2676.189999999999 636.98 2675.679999999999C637.96 2675.1699999999987 638.6700000000001 2674.309999999999 639 2673.269999999999L639.63 2671.259999999999C640 2671.9999999999986 640.21 2672.829999999999 640.22 2673.679999999999C640.24 2675.219999999999 639.6600000000001 2676.659999999999 638.57 2677.749999999999C637.9300000000001 2678.389999999999 637.1700000000001 2678.849999999999 636.3100000000001 2679.119999999999C634.6300000000001 2679.659999999999 633.09 2680.589999999999 631.87 2681.809999999999L611.28 2702.3199999999993C608.92 2704.6799999999994 607.78 2707.8699999999994 608.14 2711.0999999999995ZM624.35 2703.56C624.3100000000001 2703.42 624.24 2703.0499999999997 624.57 2702.72L628.5600000000001 2698.74C628.7600000000001 2698.54 628.98 2698.49 629.1500000000001 2698.49C629.2600000000001 2698.49 629.3500000000001 2698.5099999999998 629.4100000000001 2698.5299999999997C629.5500000000001 2698.5699999999997 629.9000000000001 2698.72 629.9900000000001 2699.1699999999996L630.1400000000001 2699.8999999999996L625.7200000000001 2704.2899999999995L625.0000000000001 2704.1499999999996C624.5500000000001 2704.0599999999995 624.4000000000001 2703.7099999999996 624.3500000000001 2703.5599999999995ZM596.47 2673.03L594.53 2669.63L595.36 2668.81L598.76 2670.75L598.61 2672.88ZM640.22 2718L627.6800000000001 2705.51L631.36 2701.8500000000004L643.9 2714.34C644.39 2714.83 644.66 2715.48 644.66 2716.17C644.66 2716.86 644.39 2717.51 643.9 2718C642.88 2719.01 641.24 2719.01 640.22 2718Z " fill="#ff9b00" fill-opacity="1" transform="matrix(1,0,0,1,-592,-2665)"></path></svg>