<svg id="SvgjsSvg1009" xmlns="http://www.w3.org/2000/svg" version="1.1" xmlns:xlink="http://www.w3.org/1999/xlink" xmlns:svgjs="http://svgjs.com/svgjs" width="49" height="56" viewBox="0 0 49 56"><title>icon</title><desc>Created with Avocode.</desc><defs id="SvgjsDefs1010"></defs><path id="SvgjsPath1011" d="M436.46 2695.59C437.29999999999995 2695.21 437.79999999999995 2694.34 437.73999999999995 2693.3700000000003L437.12999999999994 2688.3800000000006L440.62999999999994 2684.8000000000006C441.4099999999999 2684.0400000000004 441.4699999999999 2682.7400000000007 440.68999999999994 2681.8200000000006L437.17999999999995 2678.1300000000006L437.90999999999997 2673.0900000000006C438.02 2672.0100000000007 437.23999999999995 2670.9200000000005 436.13 2670.7100000000005L431.07 2669.7300000000005L428.62 2665.3400000000006C428.12 2664.3100000000004 426.9 2663.870000000001 425.78000000000003 2664.3100000000004L425.73 2664.3100000000004L421.06 2666.4200000000005L416.5 2664.2500000000005C416 2663.9800000000005 415.39 2663.9300000000003 414.83 2664.0900000000006C414.27 2664.2500000000005 413.83 2664.6300000000006 413.55 2665.120000000001L411.05 2669.5100000000007L405.99 2670.3800000000006C404.82 2670.6000000000004 404.04 2671.6300000000006 404.15000000000003 2672.8200000000006L404.77000000000004 2677.8100000000004L401.26000000000005 2681.3900000000003C400.4800000000001 2682.1500000000005 400.43000000000006 2683.4500000000003 401.21000000000004 2684.3700000000003L404.71000000000004 2688.05L403.99 2693.1000000000004C403.88 2694.07 404.49 2694.9900000000002 405.43 2695.3700000000003L397.15000000000003 2709.6900000000005C396.92 2710.0100000000007 396.98 2710.4500000000007 397.15000000000003 2710.7700000000004C397.37000000000006 2711.1000000000004 397.70000000000005 2711.3100000000004 398.09000000000003 2711.3100000000004L406.99 2711.3100000000004L411.05 2718.2000000000003C411.27000000000004 2718.5200000000004 411.6 2718.7400000000002 411.99 2718.7400000000002C412.38 2718.7400000000002 412.77 2718.5200000000004 412.94 2718.2000000000003L420.89 2704.9700000000003L428.84 2718.36C429.07 2718.69 429.4 2718.9 429.78999999999996 2718.9C430.17999999999995 2718.9 430.56999999999994 2718.69 430.72999999999996 2718.36L434.78999999999996 2711.31L443.68999999999994 2711.31C444.0799999999999 2711.31 444.4699999999999 2711.1 444.63999999999993 2710.77C444.9099999999999 2710.45 444.9099999999999 2710.0099999999998 444.68999999999994 2709.69ZM415.22 2699.93L412.77000000000004 2695.43C412.44000000000005 2694.89 411.88000000000005 2694.45 411.22 2694.3999999999996L406.1 2693.4799999999996L406.82000000000005 2688.49C406.93000000000006 2687.8399999999997 406.71000000000004 2687.1299999999997 406.27000000000004 2686.7L402.82000000000005 2683.0099999999998L406.32000000000005 2679.43C406.82000000000005 2678.95 407.0400000000001 2678.2999999999997 406.93000000000006 2677.6499999999996L406.32000000000005 2672.7099999999996C406.32000000000005 2672.7099999999996 406.32000000000005 2672.6599999999994 406.38000000000005 2672.5999999999995L411.44000000000005 2671.7399999999993C412.05000000000007 2671.629999999999 412.6600000000001 2671.2499999999995 413.00000000000006 2670.649999999999L415.50000000000006 2666.2599999999993L420.06000000000006 2668.4299999999994C420.6700000000001 2668.7499999999995 421.45000000000005 2668.7499999999995 422.06000000000006 2668.4299999999994L426.6700000000001 2666.3699999999994C426.7300000000001 2666.3699999999994 426.7300000000001 2666.3699999999994 426.7300000000001 2666.3699999999994L429.18000000000006 2670.8699999999994C429.51000000000005 2671.4099999999994 430.07000000000005 2671.8399999999992 430.68000000000006 2671.8999999999996L435.74000000000007 2672.8699999999994L435.02000000000004 2677.859999999999C434.90000000000003 2678.5099999999993 435.13000000000005 2679.2199999999993 435.57000000000005 2679.649999999999L439.08000000000004 2683.3399999999992L435.52000000000004 2686.919999999999C435.02000000000004 2687.399999999999 434.79 2688.0499999999993 434.90000000000003 2688.709999999999L435.52000000000004 2693.689999999999L430.51000000000005 2694.5099999999993C429.90000000000003 2694.609999999999 429.29 2694.9899999999993 428.95000000000005 2695.5899999999992L426.45000000000005 2699.979999999999L421.89000000000004 2697.809999999999C421.28000000000003 2697.489999999999 420.50000000000006 2697.489999999999 419.89000000000004 2697.809999999999L415.27000000000004 2699.929999999999C415.22 2699.929999999999 415.22 2699.929999999999 415.22 2699.929999999999ZM408.6 2709.69C408.38 2709.36 408.05 2709.14 407.66 2709.14L399.98 2709.14L407.66 2695.92L410.83000000000004 2696.46L413.27000000000004 2700.85C413.77000000000004 2701.88 415.00000000000006 2702.31 416.11 2701.88L416.16 2701.88L418.44 2700.85L419.56 2702.75L412.05 2715.49ZM433.24 2709.69L429.79 2715.65L421.95000000000005 2702.42C421.89000000000004 2702.26 421.84000000000003 2702.15 421.73 2702.04L420.5 2699.93L420.89 2699.77L425.45 2701.93C425.78 2702.1 426.12 2702.1499999999996 426.45 2702.1499999999996C427.22999999999996 2702.1499999999996 428.01 2701.7699999999995 428.4 2701.0699999999997L430.9 2696.6699999999996L434.23999999999995 2696.0799999999995L441.85999999999996 2709.1399999999994L434.17999999999995 2709.1399999999994C433.78999999999996 2709.1399999999994 433.4 2709.359999999999 433.23999999999995 2709.6899999999996Z " fill="#ff9b00" fill-opacity="1" transform="matrix(1,0,0,1,-396,-2663)"></path><path id="SvgjsPath1012" d="M421.12 2672C415 2672 410 2676.88 410 2682.84C410 2688.81 415 2693.69 421.12 2693.69C427.24 2693.69 432.24 2688.81 432.24 2682.84C432.24 2676.88 427.24 2672 421.12 2672ZM412.22 2682.84C412.22 2678.07 416.23 2674.17 421.12 2674.17C426.02 2674.17 430.02 2678.07 430.02 2682.84C430.02 2687.61 426.02 2691.52 421.12 2691.52C416.23 2691.52 412.22 2687.61 412.22 2682.84Z " fill="#ff9b00" fill-opacity="1" transform="matrix(1,0,0,1,-396,-2663)"></path></svg>