<svg id="SvgjsSvg1131" xmlns="http://www.w3.org/2000/svg" version="1.1" xmlns:xlink="http://www.w3.org/1999/xlink" xmlns:svgjs="http://svgjs.com/svgjs" width="69" height="55" viewBox="0 0 69 55"><title>transport</title><desc>Created with Avocode.</desc><defs id="SvgjsDefs1132"></defs><path id="SvgjsPath1133" d="M893.96 979.11C893.1600000000001 978.3100000000001 892.13 977.85 891.09 977.85L879.61 977.85L879.61 975.45C879.61 972.94 877.66 971 875.25 971L840.48 971C837.95 971 836 972.94 836 975.45L836 1014.96C836 1017.13 837.84 1018.96 840.02 1018.96L841.8199999999999 1018.96C842.3699999999999 1022.86 845.6899999999999 1025.81 849.77 1025.81C853.86 1025.81 857.18 1022.8599999999999 857.73 1018.9599999999999L883.14 1018.9599999999999C883.6899999999999 1022.8599999999999 887.01 1025.81 891.09 1025.81C895.1800000000001 1025.81 898.5 1022.8599999999999 899.0500000000001 1018.9599999999999L904.98 1018.9599999999999L904.98 992.6999999999999C904.98 991.67 904.64 990.7599999999999 903.95 990.0699999999999ZM854.36 994.98C855.0500000000001 994.98 855.51 994.52 855.51 993.84C855.51 993.15 855.05 992.7 854.36 992.7L838.3000000000001 992.7L838.3000000000001 989.2700000000001L849.7700000000001 989.2700000000001C850.4600000000002 989.2700000000001 850.9200000000001 988.8100000000001 850.9200000000001 988.1300000000001C850.9200000000001 987.44 850.46 986.9900000000001 849.7700000000001 986.9900000000001L838.3000000000001 986.9900000000001L838.3000000000001 975.4500000000002C838.3000000000001 974.2000000000002 839.21 973.2800000000002 840.48 973.2800000000002L875.14 973.2800000000002C876.4 973.2800000000002 877.3199999999999 974.3100000000002 877.3199999999999 975.4500000000002L877.3199999999999 1002.9700000000001L838.3 1002.9700000000001L838.3 994.9800000000001ZM857.73 1016.68C857.21 1013.02 854.26 1010.1999999999999 850.53 1009.8599999999999C850.5 1009.8599999999999 850.47 1009.8599999999999 850.4399999999999 1009.8499999999999C850.3499999999999 1009.8499999999999 850.26 1009.8399999999999 850.16 1009.8399999999999C850.03 1009.8299999999999 849.9 1009.8299999999999 849.77 1009.8299999999999C849.64 1009.8299999999999 849.51 1009.8299999999999 849.38 1009.8399999999999C849.29 1009.8399999999999 849.2 1009.8499999999999 849.1 1009.8499999999999C849.07 1009.8599999999999 849.0500000000001 1009.8599999999999 849.02 1009.8599999999999C845.28 1010.1999999999999 842.3299999999999 1013.0199999999999 841.8199999999999 1016.68L840.02 1016.68C839.1 1016.68 838.3 1015.88 838.3 1014.9599999999999L838.3 1005.2599999999999L877.3199999999999 1005.2599999999999L877.3199999999999 1016.6799999999998ZM902.57 992.58L902.57 996.12L885.35 996.12L885.35 984.7L895.8000000000001 984.7L902.11 991.5500000000001C902.46 991.7800000000001 902.57 992.2400000000001 902.57 992.58ZM844.03 1017.82C844.03 1014.62 846.56 1012.11 849.77 1012.11C852.99 1012.11 855.51 1014.62 855.51 1017.82C855.51 1021.0200000000001 852.99 1023.5300000000001 849.77 1023.5300000000001C846.56 1023.5300000000001 844.03 1021.0200000000001 844.03 1017.82ZM885.35 1017.82C885.35 1014.62 887.88 1012.11 891.09 1012.11C894.3100000000001 1012.11 896.83 1014.62 896.83 1017.82C896.83 1021.0200000000001 894.3100000000001 1023.5300000000001 891.09 1023.5300000000001C887.88 1023.5300000000001 885.35 1021.0200000000001 885.35 1017.82ZM891.85 1009.86C891.82 1009.86 891.7900000000001 1009.86 891.76 1009.85C891.67 1009.85 891.58 1009.84 891.48 1009.84C891.35 1009.83 891.22 1009.83 891.09 1009.83C890.96 1009.83 890.83 1009.83 890.7 1009.84C890.61 1009.84 890.5200000000001 1009.85 890.4200000000001 1009.85C890.3900000000001 1009.86 890.3700000000001 1009.86 890.34 1009.86C886.6 1010.2 883.65 1013.02 883.14 1016.6800000000001L879.61 1016.6800000000001L879.61 980.1400000000001L891.09 980.1400000000001C891.44 980.1400000000001 891.9 980.3600000000001 892.24 980.5900000000001L893.89 982.4200000000002L885.01 982.4200000000002C883.98 982.4200000000002 883.06 983.3300000000002 883.06 984.3600000000002L883.06 996.4700000000003C883.06 997.4900000000002 883.9799999999999 998.4100000000003 885.01 998.4100000000003L902.5699999999999 998.4100000000003L902.5699999999999 1004.1200000000003L896.8299999999999 1004.1200000000003C896.1399999999999 1004.1200000000003 895.68 1004.5700000000004 895.68 1005.2600000000003C895.68 1005.9400000000003 896.14 1006.4000000000003 896.8299999999999 1006.4000000000003L902.5699999999999 1006.4000000000003L902.5699999999999 1016.6800000000003L899.05 1016.6800000000003C898.53 1013.0200000000003 895.5799999999999 1010.2000000000003 891.8499999999999 1009.8600000000002Z " fill="#ff9b00" fill-opacity="1" transform="matrix(1,0,0,1,-836,-971)"></path><path id="SvgjsPath1134" d="M849.3 1016C848.03 1016 847 1017.03 847 1018.28C847 1019.54 848.03 1020.5699999999999 849.3 1020.5699999999999C850.56 1020.5699999999999 851.5899999999999 1019.54 851.5899999999999 1018.28C851.5899999999999 1017.03 850.56 1016 849.3 1016Z " fill="#ff9b00" fill-opacity="1" transform="matrix(1,0,0,1,-836,-971)"></path><path id="SvgjsPath1135" d="M891.3 1016C890.03 1016 889 1017.03 889 1018.28C889 1019.54 890.03 1020.5699999999999 891.3 1020.5699999999999C892.56 1020.5699999999999 893.5899999999999 1019.54 893.5899999999999 1018.28C893.5899999999999 1017.03 892.56 1016 891.3 1016Z " fill="#ff9b00" fill-opacity="1" transform="matrix(1,0,0,1,-836,-971)"></path></svg>