<svg id="SvgjsSvg1118" xmlns="http://www.w3.org/2000/svg" version="1.1" xmlns:xlink="http://www.w3.org/1999/xlink" xmlns:svgjs="http://svgjs.com/svgjs" width="48" height="59" viewBox="0 0 48 59"><title>interface</title><desc>Created with Avocode.</desc><defs id="SvgjsDefs1119"></defs><path id="SvgjsPath1120" d="M669 1191C669.55 1191 670 1190.55 670 1190L670 1157C670 1156.45 669.55 1156 669 1156C668.45 1156 668 1156.45 668 1157L668 1190C668 1190.55 668.45 1191 669 1191Z " fill="#ff9b00" fill-opacity="1" transform="matrix(1,0,0,1,-645,-1140)"></path><path id="SvgjsPath1121" d="M659 1191C659.55 1191 660 1190.55 660 1190L660 1157C660 1156.45 659.55 1156 659 1156C658.45 1156 658 1156.45 658 1157L658 1190C658 1190.55 658.45 1191 659 1191Z " fill="#ff9b00" fill-opacity="1" transform="matrix(1,0,0,1,-645,-1140)"></path><path id="SvgjsPath1122" d="M679 1191C679.55 1191 680 1190.55 680 1190L680 1157C680 1156.45 679.55 1156 679 1156C678.45 1156 678 1156.45 678 1157L678 1190C678 1190.55 678.45 1191 679 1191Z " fill="#ff9b00" fill-opacity="1" transform="matrix(1,0,0,1,-645,-1140)"></path><path id="SvgjsPath1123" d="M677.96 1146C677.85 1144.75 677.46 1142.64 676.14 1141.29C675.31 1140.43 674.25 1140 673 1140L663 1140C661.75 1140 660.69 1140.43 659.86 1141.29C658.54 1142.6399999999999 658.15 1144.75 658.04 1146L646 1146C645.45 1146 645 1146.45 645 1147C645 1147.55 645.45 1148 646 1148L648.04 1148L649.9599999999999 1194.02C649.9899999999999 1195.74 651.0699999999999 1199 654.8599999999999 1199L683.1399999999999 1199C686.9399999999998 1199 688.0099999999999 1195.74 688.0399999999998 1194.04L689.9599999999998 1148L691.9999999999998 1148C692.5499999999997 1148 692.9999999999998 1147.55 692.9999999999998 1147C692.9999999999998 1146.45 692.5499999999997 1146 691.9999999999998 1146ZM663 1142L673 1142C673.7 1142 674.26 1142.22 674.71 1142.68C675.51 1143.5 675.83 1144.95 675.95 1146L660.0500000000001 1146C660.1600000000001 1144.95 660.4900000000001 1143.5 661.2900000000001 1142.68C661.7400000000001 1142.22 662.3000000000001 1142 663.0000000000001 1142ZM683.14 1197L654.86 1197C652.13 1197 651.97 1194.28 651.95 1193.96L650.0400000000001 1148L687.96 1148L686.0400000000001 1193.98C686.0400000000001 1194.29 685.9000000000001 1197 683.1400000000001 1197Z " fill="#ff9b00" fill-opacity="1" transform="matrix(1,0,0,1,-645,-1140)"></path></svg>