<svg id="SvgjsSvg1124" xmlns="http://www.w3.org/2000/svg" version="1.1" xmlns:xlink="http://www.w3.org/1999/xlink" xmlns:svgjs="http://svgjs.com/svgjs" width="59" height="60" viewBox="0 0 59 60"><title>business</title><desc>Created with Avocode.</desc><defs id="SvgjsDefs1125"></defs><path id="SvgjsPath1126" d="M1091.42 968.79C1089.14 966.52 1085.3000000000002 966.39 1082.8500000000001 968.5L1076.7 973.8C1076.63 973.8599999999999 1076.56 973.9399999999999 1076.5 974.03L1070.52 983.9499999999999L1066.68 985.2199999999999C1066.3500000000001 985.3299999999999 1066.1100000000001 985.5899999999999 1066.03 985.93C1065.95 986.26 1066.05 986.5999999999999 1066.29 986.8499999999999L1076.76 997.2599999999999C1076.95 997.4399999999998 1077.2 997.5499999999998 1077.46 997.5499999999998C1077.54 997.5499999999998 1077.6100000000001 997.5399999999998 1077.69 997.5199999999999C1078.02 997.4399999999998 1078.29 997.1999999999998 1078.4 996.8699999999999L1079.68 993.0499999999998L1089.8 986.9799999999998C1089.8899999999999 986.9299999999998 1089.97 986.8599999999998 1090.04 986.7799999999997L1095.24 980.7799999999997C1097.35 978.3599999999998 1097.2 974.5399999999997 1094.92 972.2699999999998ZM1088.64 985.38L1078.3500000000001 991.56C1078.15 991.68 1078.0000000000002 991.8699999999999 1077.92 992.0899999999999L1077.03 994.7499999999999L1074.67 992.3999999999999L1071.18 988.9299999999998L1068.8200000000002 986.5799999999998L1071.4900000000002 985.6899999999998C1071.7100000000003 985.6199999999998 1071.9000000000003 985.4699999999998 1072.0200000000002 985.2699999999999L1078.1200000000001 975.1799999999998L1084.15 969.9799999999998C1085.8300000000002 968.5399999999997 1088.46 968.6199999999998 1090.0300000000002 970.1799999999998L1093.5300000000002 973.6599999999999C1095.0900000000001 975.2099999999998 1095.1900000000003 977.8399999999998 1093.7400000000002 979.4999999999999Z " fill="#ff9b00" fill-opacity="1" transform="matrix(1,0,0,1,-1038,-966)"></path><path id="SvgjsPath1127" d="M1081.19 1004L1060.2 983.13C1061.45 979.29 1060.45 975.05 1057.55 972.16C1054.49 969.13 1049.9199999999998 968.18 1045.8999999999999 969.75C1045.59 969.87 1045.36 970.13 1045.29 970.46C1045.22 970.7800000000001 1045.32 971.12 1045.56 971.35L1051.84 977.6L1047.6499999999999 981.76L1041.37 975.52C1041.1299999999999 975.28 1040.79 975.18 1040.4699999999998 975.25C1040.1399999999999 975.32 1039.87 975.55 1039.7499999999998 975.86C1038.1699999999998 979.85 1039.1299999999999 984.4 1042.1799999999998 987.44C1045.08 990.32 1049.35 991.32 1053.2199999999998 990.08L1061.0599999999997 997.88L1051.2899999999997 1007.59L1045.0799999999997 1011.0500000000001C1044.8999999999996 1011.1500000000001 1044.7599999999998 1011.2900000000001 1044.6699999999996 1011.47L1041.8799999999997 1017.02C1041.6899999999996 1017.4 1041.7699999999998 1017.86 1042.0699999999997 1018.15L1045.5599999999997 1021.63C1045.7499999999998 1021.81 1045.9999999999998 1021.91 1046.2599999999998 1021.91C1046.4099999999999 1021.91 1046.5599999999997 1021.88 1046.6999999999998 1021.81L1052.2799999999997 1019.03C1052.4599999999998 1018.9399999999999 1052.6099999999997 1018.81 1052.6999999999998 1018.63L1056.1799999999998 1012.45L1065.9499999999998 1002.74L1074.2099999999998 1010.94C1072.9499999999998 1014.7900000000001 1073.9599999999998 1019.0300000000001 1076.86 1021.9100000000001C1078.9399999999998 1023.9800000000001 1081.7099999999998 1025.0800000000002 1084.55 1025.0800000000002C1085.8799999999999 1025.0800000000002 1087.22 1024.8300000000002 1088.51 1024.3300000000002C1088.82 1024.2100000000003 1089.05 1023.9400000000002 1089.12 1023.6200000000001C1089.1799999999998 1023.2900000000001 1089.08 1022.9600000000002 1088.85 1022.7200000000001L1082.57 1016.4800000000001L1086.76 1012.3100000000002L1093.04 1018.5600000000002C1093.27 1018.7900000000002 1093.61 1018.8900000000002 1093.94 1018.8200000000002C1094.26 1018.7600000000002 1094.53 1018.5300000000002 1094.66 1018.2200000000001C1096.23 1014.2200000000001 1095.28 1009.6700000000002 1092.22 1006.6400000000001C1089.32 1003.7600000000001 1085.05 1002.7500000000001 1081.19 1004.0000000000001ZM1054.52 1011.38L1051.1299999999999 1017.41L1046.4499999999998 1019.74L1043.9699999999998 1017.27L1046.2999999999997 1012.62L1052.3699999999997 1009.24C1052.4499999999996 1009.2 1052.5299999999997 1009.14 1052.5899999999997 1009.08L1062.4599999999996 999.2700000000001L1064.5599999999995 1001.3500000000001L1054.6899999999996 1011.1600000000001C1054.6199999999997 1011.2300000000001 1054.5699999999997 1011.3000000000001 1054.5199999999995 1011.3800000000001ZM1087.45 1010.23C1087.07 1009.84 1086.44 1009.84 1086.06 1010.23L1080.47 1015.78C1080.29 1015.97 1080.18 1016.22 1080.18 1016.48C1080.18 1016.74 1080.29 1016.99 1080.47 1017.1700000000001L1086.28 1022.94C1083.3999999999999 1023.5100000000001 1080.3799999999999 1022.6300000000001 1078.26 1020.5200000000001C1075.76 1018.0400000000001 1074.97 1014.32 1076.26 1011.0400000000001C1076.41 1010.6800000000001 1076.32 1010.2700000000001 1076.04 1009.9900000000001L1054.17 988.2500000000001C1053.98 988.0600000000001 1053.73 987.9600000000002 1053.47 987.9600000000002C1053.3500000000001 987.9600000000002 1053.23 987.9800000000001 1053.1100000000001 988.0300000000002C1049.8200000000002 989.3100000000002 1046.0800000000002 988.5300000000002 1043.5800000000002 986.0500000000002C1041.4600000000003 983.9400000000002 1040.5700000000002 980.9400000000002 1041.15 978.0800000000002L1046.95 983.8500000000001C1047.3400000000001 984.2300000000001 1047.96 984.2300000000001 1048.3500000000001 983.8500000000001L1053.93 978.2900000000002C1054.3200000000002 977.9100000000002 1054.3200000000002 977.2900000000002 1053.93 976.9100000000002L1048.13 971.1300000000002C1051.0100000000002 970.5600000000002 1054.0300000000002 971.4400000000002 1056.15 973.5500000000002C1058.65 976.0400000000002 1059.43 979.7600000000002 1058.14 983.0300000000002C1058 983.3900000000002 1058.0800000000002 983.8100000000002 1058.3600000000001 984.0800000000002L1080.23 1005.8300000000002C1080.51 1006.1000000000001 1080.93 1006.1900000000002 1081.29 1006.0500000000002C1084.58 1004.7600000000002 1088.33 1005.5400000000002 1090.83 1008.0300000000002C1092.9499999999998 1010.1400000000002 1093.83 1013.1400000000002 1093.26 1016.0000000000002Z " fill="#ff9b00" fill-opacity="1" transform="matrix(1,0,0,1,-1038,-966)"></path></svg>