<svg id="SvgjsSvg1128" xmlns="http://www.w3.org/2000/svg" version="1.1" xmlns:xlink="http://www.w3.org/1999/xlink" xmlns:svgjs="http://svgjs.com/svgjs" width="59" height="59" viewBox="0 0 59 59"><title>tool</title><desc>Created with Avocode.</desc><defs id="SvgjsDefs1129"></defs><path id="SvgjsPath1130" d="M639 979.07L685.8 1025.8700000000001L697.87 1013.8000000000001L651.06 967.0000000000001ZM695.54 1013.8L685.8 1023.54L684.51 1022.25L691.24 1015.53C691.5 1015.26 691.5 1014.8299999999999 691.24 1014.5699999999999C690.97 1014.31 690.55 1014.3 690.28 1014.5699999999999L683.56 1021.29L681.4599999999999 1019.1999999999999L685.79 1014.8699999999999C686.06 1014.6099999999999 686.06 1014.1799999999998 685.79 1013.9199999999998C685.53 1013.6499999999999 685.0999999999999 1013.6499999999999 684.8399999999999 1013.9199999999998L680.5099999999999 1018.2399999999999L678.7799999999999 1016.5199999999999L683.1099999999999 1012.1899999999998C683.3699999999999 1011.9199999999998 683.3699999999999 1011.4899999999998 683.1099999999999 1011.2299999999998C682.8399999999999 1010.9599999999998 682.4099999999999 1010.9599999999998 682.1499999999999 1011.2299999999998L677.8199999999998 1015.5599999999998L676.1599999999999 1013.8999999999999L680.4899999999999 1009.5699999999998C680.7599999999999 1009.3099999999998 680.7599999999999 1008.8799999999998 680.4899999999999 1008.6199999999998C680.2299999999999 1008.3499999999998 679.7999999999998 1008.3499999999998 679.5399999999998 1008.6199999999998L675.1999999999998 1012.9499999999998L673.3299999999998 1011.0699999999998L680.0599999999998 1004.3499999999998C680.3199999999998 1004.0799999999998 680.3199999999998 1003.6499999999997 680.0599999999998 1003.3899999999998C679.7899999999998 1003.1199999999998 679.3599999999998 1003.1199999999998 679.0999999999998 1003.3899999999998L672.3799999999998 1010.1099999999998L671.0799999999998 1008.8199999999998L675.6299999999998 1004.2699999999999C675.8899999999998 1004.0099999999999 675.8899999999998 1003.5799999999998 675.6299999999998 1003.3099999999998C675.3599999999998 1003.0499999999998 674.9399999999997 1003.0499999999998 674.6699999999997 1003.3099999999998L670.1199999999998 1007.8599999999998L668.3999999999997 1006.1299999999998L672.9399999999997 1001.5799999999998C673.2099999999997 1001.3199999999998 673.2099999999997 1000.8899999999998 672.9399999999997 1000.6299999999998C672.6799999999997 1000.3599999999998 672.2499999999997 1000.3599999999998 671.9899999999997 1000.6299999999998L667.4399999999997 1005.1699999999997L665.7799999999997 1003.5199999999998L670.3299999999997 998.9699999999998C670.5899999999997 998.7099999999998 670.5899999999997 998.2799999999997 670.3299999999997 998.0099999999998C670.0599999999997 997.7499999999998 669.6399999999996 997.7499999999998 669.3699999999997 998.0099999999998L664.8199999999997 1002.5599999999997L662.9299999999997 1000.6699999999997L669.6599999999997 993.9399999999997C669.9199999999997 993.6799999999997 669.9199999999997 993.2499999999997 669.6499999999997 992.9799999999997C669.3899999999998 992.7199999999997 668.9599999999997 992.7199999999997 668.6999999999997 992.9799999999997L661.9699999999997 999.7099999999997L659.8799999999997 997.6199999999997L664.2099999999997 993.2899999999996C664.4799999999997 993.0199999999996 664.4799999999997 992.5899999999996 664.2099999999997 992.3299999999996C663.9499999999997 992.0599999999996 663.5199999999996 992.0699999999996 663.2499999999997 992.3299999999996L658.9199999999996 996.6599999999996L657.1899999999996 994.9299999999996L661.5199999999996 990.5999999999996C661.7899999999996 990.3399999999996 661.7899999999996 989.9099999999995 661.5199999999996 989.6499999999995C661.2599999999996 989.3799999999995 660.8299999999996 989.3799999999995 660.5699999999996 989.6399999999995L656.2399999999996 993.9699999999996L654.5799999999996 992.3099999999996L658.9099999999996 987.9899999999996C659.1799999999996 987.7199999999996 659.1699999999996 987.2899999999995 658.9099999999996 987.0299999999995C658.6499999999996 986.7599999999995 658.2199999999996 986.7599999999995 657.9499999999996 987.0299999999995L653.6299999999995 991.3599999999996L651.7499999999995 989.4899999999996L658.4799999999996 982.7599999999995C658.7399999999996 982.4999999999995 658.7399999999996 982.0699999999995 658.4799999999996 981.7999999999995C658.2099999999996 981.5399999999995 657.7799999999995 981.5399999999995 657.5199999999995 981.7999999999995L650.7999999999995 988.5299999999995L649.4999999999995 987.2299999999996L654.0499999999995 982.6899999999996C654.3099999999995 982.4199999999996 654.3099999999995 981.9899999999996 654.0499999999995 981.7299999999996C653.7799999999995 981.4599999999996 653.3599999999994 981.4599999999996 653.0899999999995 981.7299999999996L648.5399999999995 986.2799999999995L646.8199999999995 984.5499999999995L651.3599999999994 979.9999999999995C651.6299999999994 979.7399999999996 651.6299999999994 979.3099999999995 651.3599999999994 979.0399999999995C651.0999999999995 978.7799999999995 650.6699999999994 978.7799999999995 650.3999999999994 979.0399999999995L645.8599999999994 983.5899999999995L644.1999999999995 981.9299999999995L648.7499999999994 977.3799999999995C649.0099999999994 977.1199999999995 649.0099999999994 976.6999999999996 648.7499999999994 976.4299999999995C648.4799999999994 976.1699999999995 648.0599999999994 976.1699999999995 647.7899999999994 976.4299999999995L643.2399999999994 980.9799999999994L641.3299999999995 979.0599999999995L651.0599999999995 969.3299999999995Z " fill="#ff9b00" fill-opacity="1" transform="matrix(1,0,0,1,-639,-967)"></path></svg>