<svg id="SvgjsSvg1136" xmlns="http://www.w3.org/2000/svg" version="1.1" xmlns:xlink="http://www.w3.org/1999/xlink" xmlns:svgjs="http://svgjs.com/svgjs" width="53" height="62" viewBox="0 0 53 62"><title>medal</title><desc>Created with Avocode.</desc><defs id="SvgjsDefs1137"></defs><path id="SvgjsPath1138" d="M885.49 1172.98C886.41 1172.56 886.96 1171.59 886.9 1170.51L886.22 1164.99L890.08 1161.03C890.94 1160.19 891 1158.75 890.1500000000001 1157.73L886.2900000000001 1153.65L887.08 1148.0700000000002C887.2 1146.8600000000001 886.35 1145.66 885.12 1145.42L879.54 1144.3400000000001L876.8499999999999 1139.4800000000002C876.3 1138.3400000000001 874.9499999999999 1137.8600000000004 873.7199999999999 1138.3400000000001L873.66 1138.3400000000001L868.51 1140.68L863.49 1138.28C862.94 1137.98 862.26 1137.92 861.65 1138.1C861.04 1138.28 860.55 1138.6999999999998 860.24 1139.24L857.48 1144.1L851.91 1145.06C850.62 1145.3 849.76 1146.44 849.88 1147.77L850.56 1153.29L846.6999999999999 1157.25C845.8399999999999 1158.09 845.78 1159.53 846.64 1160.55L850.5 1164.6299999999999L849.7 1170.2099999999998C849.58 1171.2899999999997 850.25 1172.3199999999997 851.2900000000001 1172.7399999999998L842.1600000000001 1188.5799999999997C841.9200000000001 1188.9399999999996 841.9800000000001 1189.4199999999996 842.1600000000001 1189.7799999999997C842.4100000000001 1190.1399999999996 842.7700000000001 1190.3799999999997 843.2 1190.3799999999997L853.01 1190.3799999999997L857.48 1198.0099999999998C857.73 1198.3699999999997 858.1 1198.6099999999997 858.52 1198.6099999999997C858.9499999999999 1198.6099999999997 859.38 1198.3699999999997 859.5699999999999 1198.0099999999998L868.3299999999999 1183.3599999999997L877.0899999999999 1198.1899999999996C877.3399999999999 1198.5499999999995 877.7099999999999 1198.7899999999995 878.1299999999999 1198.7899999999995C878.5599999999998 1198.7899999999995 878.9899999999999 1198.5499999999995 879.1799999999998 1198.1899999999996L883.6499999999999 1190.3799999999997L893.4599999999998 1190.3799999999997C893.8799999999998 1190.3799999999997 894.3099999999998 1190.1399999999996 894.4999999999998 1189.7799999999997C894.7999999999997 1189.4199999999998 894.7999999999997 1188.9399999999998 894.5599999999997 1188.5799999999997ZM862.08 1177.78L859.38 1172.8C859.01 1172.2 858.4 1171.71 857.67 1171.6499999999999L852.03 1170.6299999999999L852.8199999999999 1165.11C852.9499999999999 1164.3899999999999 852.6999999999999 1163.61 852.2099999999999 1163.1299999999999L848.41 1159.05L852.27 1155.09C852.8199999999999 1154.55 853.0699999999999 1153.83 852.9499999999999 1153.11L852.27 1147.6499999999999C852.27 1147.6499999999999 852.27 1147.59 852.3299999999999 1147.53L857.91 1146.56C858.5899999999999 1146.44 859.26 1146.02 859.63 1145.36L862.38 1140.5L867.41 1142.9C868.0799999999999 1143.26 868.9399999999999 1143.26 869.62 1142.9L874.7 1140.6200000000001C874.76 1140.6200000000001 874.76 1140.6200000000001 874.76 1140.6200000000001L877.46 1145.6000000000001C877.83 1146.2 878.44 1146.68 879.12 1146.7400000000002L884.69 1147.8300000000002L883.9000000000001 1153.3500000000001C883.7700000000001 1154.0700000000002 884.0200000000001 1154.8500000000001 884.5100000000001 1155.3300000000002L888.3700000000001 1159.41L884.4500000000002 1163.3700000000001C883.9000000000002 1163.91 883.6500000000002 1164.63 883.7700000000002 1165.3500000000001L884.4500000000002 1170.8700000000001L878.9300000000002 1171.7700000000002C878.2600000000002 1171.89 877.5800000000002 1172.3200000000002 877.2200000000001 1172.9800000000002L874.4600000000002 1177.8400000000001L869.4300000000002 1175.44C868.7600000000002 1175.0800000000002 867.9000000000002 1175.0800000000002 867.2300000000001 1175.44L862.1400000000001 1177.78C862.0800000000002 1177.78 862.0800000000002 1177.78 862.0800000000002 1177.78ZM854.79 1188.58C854.54 1188.22 854.17 1187.98 853.74 1187.98L845.29 1187.98L853.74 1173.34L857.24 1173.9399999999998L859.9300000000001 1178.7999999999997C860.49 1179.9399999999998 861.83 1180.4199999999996 863.0600000000001 1179.9399999999998L863.12 1179.9399999999998L865.63 1178.7999999999997L866.86 1180.8999999999996L858.59 1194.9999999999995ZM881.93 1188.58L878.13 1195.1799999999998L869.49 1180.5399999999997C869.4300000000001 1180.3599999999997 869.37 1180.2399999999998 869.25 1180.1199999999997L867.9 1177.7799999999997L868.3299999999999 1177.5999999999997L873.3499999999999 1179.9999999999998C873.7199999999999 1180.1799999999998 874.0899999999999 1180.2399999999998 874.4599999999999 1180.2399999999998C875.3199999999999 1180.2399999999998 876.17 1179.8199999999997 876.5999999999999 1179.0399999999997L879.3599999999999 1174.1799999999998L883.0399999999998 1173.5199999999998L891.4299999999998 1187.9799999999998L882.9799999999998 1187.9799999999998C882.5499999999998 1187.9799999999998 882.1199999999998 1188.2199999999998 881.9299999999998 1188.5799999999997Z " fill="#ff9b00" fill-opacity="1" transform="matrix(1,0,0,1,-842,-1137)"></path><path id="SvgjsPath1139" d="M868.26 1147C861.52 1147 856 1152.4 856 1159C856 1165.61 861.52 1171.01 868.26 1171.01C875 1171.01 880.51 1165.61 880.51 1159C880.51 1152.4 875 1147 868.26 1147ZM858.45 1159C858.45 1153.72 862.86 1149.4 868.26 1149.4C873.65 1149.4 878.06 1153.72 878.06 1159C878.06 1164.29 873.65 1168.61 868.26 1168.61C862.86 1168.61 858.45 1164.29 858.45 1159Z " fill="#ff9b00" fill-opacity="1" transform="matrix(1,0,0,1,-842,-1137)"></path></svg>