<svg id="SvgjsSvg1000" xmlns="http://www.w3.org/2000/svg" version="1.1" xmlns:xlink="http://www.w3.org/1999/xlink" xmlns:svgjs="http://svgjs.com/svgjs" width="44" height="57" viewBox="0 0 44 57"><title>icon</title><desc>Created with Avocode.</desc><defs id="SvgjsDefs1001"></defs><path id="SvgjsPath1007" d="M212 2683.18C212 2687.14 215.54 2690.3599999999997 219.89 2690.3599999999997C224.23999999999998 2690.3599999999997 227.77999999999997 2687.14 227.77999999999997 2683.18C227.77999999999997 2679.22 224.23999999999998 2676 219.89 2676C215.54 2676 212 2679.22 212 2683.18ZM214.25 2683.18C214.25 2680.35 216.78 2678.0499999999997 219.89 2678.0499999999997C222.98999999999998 2678.0499999999997 225.51999999999998 2680.35 225.51999999999998 2683.18C225.51999999999998 2686.0099999999998 222.98999999999998 2688.31 219.89 2688.31C216.77999999999997 2688.31 214.25 2686.0099999999998 214.25 2683.18Z " fill="#ff9b00" fill-opacity="1" transform="matrix(1,0,0,1,-198,-2663)"></path><path id="SvgjsPath1008" d="M219.61 2663C213.84 2663 208.41000000000003 2665.05 204.33 2668.76C196.78 2675.6400000000003 195.84 2688.57 202.3 2696.4100000000003L219.61 2719.1700000000005L236.9 2696.4400000000005C243.38 2688.5700000000006 242.44 2675.6400000000003 234.89000000000001 2668.7600000000007C230.81 2665.0500000000006 225.38000000000002 2663.0000000000005 219.61 2663.0000000000005ZM219.61 2715.57L204.13000000000002 2695.21C198.27 2688.1 199.11 2676.42 205.92000000000002 2670.21C209.58 2666.88 214.44000000000003 2665.05 219.61 2665.05C224.78 2665.05 229.64000000000001 2666.88 233.3 2670.21C240.11 2676.42 240.95000000000002 2688.1 235.07000000000002 2695.2400000000002Z " fill="#ff9b00" fill-opacity="1" transform="matrix(1,0,0,1,-198,-2663)"></path></svg>