<svg id="SvgjsSvg1016" xmlns="http://www.w3.org/2000/svg" version="1.1" xmlns:xlink="http://www.w3.org/1999/xlink" xmlns:svgjs="http://svgjs.com/svgjs" width="54" height="56" viewBox="0 0 54 56"><title>icon</title><desc>Created with Avocode.</desc><defs id="SvgjsDefs1017"></defs><path id="SvgjsPath1018" d="M846.2 2690.09L846.2 2677.73C846.2 2674.76 843.86 2672.35 840.98 2672.35L837.45 2672.35L833.84 2665.66C833.2900000000001 2664.64 832.24 2664 831.1 2664C830.57 2664 830.0400000000001 2664.14 829.58 2664.41L815.71 2672.35L800.22 2672.35C797.34 2672.35 795 2674.7599999999998 795 2677.73L795 2714.63C795 2717.59 797.34 2720 800.22 2720L840.98 2720C843.86 2720 846.2 2717.59 846.2 2714.63L846.2 2703.79L848.8100000000001 2703.79L848.8100000000001 2690.09ZM840.98 2717.85L800.22 2717.85C798.49 2717.85 797.09 2716.4 797.09 2714.63L797.09 2677.73C797.09 2675.95 798.49 2674.5 800.22 2674.5L811.96 2674.5L806.96 2677.37L800.87 2677.37C800.29 2677.37 799.82 2677.85 799.82 2678.44C799.82 2679.04 800.2900000000001 2679.52 800.87 2679.52L844.11 2679.52L844.11 2690.09L836.48 2690.09C832.94 2690.09 830.0600000000001 2693.06 830.0600000000001 2696.71L830.0600000000001 2697.17C830.0600000000001 2700.82 832.94 2703.79 836.48 2703.79L844.11 2703.79L844.11 2714.63C844.11 2716.4 842.71 2717.85 840.98 2717.85ZM832.01 2666.7L837.77 2677.37L811.25 2677.37L830.6 2666.2799999999997C831.08 2665.9999999999995 831.74 2666.2 832.01 2666.7ZM836.48 2701.64C834.09 2701.64 832.14 2699.64 832.14 2697.17L832.14 2696.71C832.14 2694.2400000000002 834.09 2692.2400000000002 836.48 2692.2400000000002L846.72 2692.2400000000002L846.72 2701.6400000000003ZM844.08 2677.37L840.1600000000001 2677.37L838.6100000000001 2674.5L840.9800000000001 2674.5C842.5900000000001 2674.5 843.9000000000001 2675.76 844.0800000000002 2677.37ZM837.38 2699.4C836.1 2699.4 835.07 2698.34 835.07 2697.03C835.07 2695.7200000000003 836.1 2694.65 837.38 2694.65C838.65 2694.65 839.68 2695.7200000000003 839.68 2697.03C839.68 2698.34 838.65 2699.4 837.38 2699.4Z " fill="#ff9b00" fill-opacity="1" transform="matrix(1,0,0,1,-795,-2664)"></path></svg>