<svg id="SvgjsSvg1043" xmlns="http://www.w3.org/2000/svg" version="1.1" xmlns:xlink="http://www.w3.org/1999/xlink" xmlns:svgjs="http://svgjs.com/svgjs" width="56" height="59" viewBox="0 0 56 59"><title>businessbusinessbusinessbusiness copy</title><desc>Created with Avocode.</desc><defs id="SvgjsDefs1044"></defs><path id="SvgjsPath1045" d="M1018.25 3528L992 3528L992 3582.67L1029.11 3582.67L1029.11 3539.4700000000003ZM1026.17 3538.93L1018.7600000000001 3538.93L1018.7600000000001 3531.1099999999997ZM993.73 3529.82L1017.03 3529.82L1017.03 3540.76L1027.3899999999999 3540.76L1027.3899999999999 3580.8500000000004L993.7299999999999 3580.8500000000004Z " fill="#f8d49a" fill-opacity="1" transform="matrix(1,0,0,1,-992,-3526)"></path><path id="SvgjsPath1046" d="M1039 3526L1039 3575.42L1043.32 3584.53L1047.6299999999999 3575.42L1047.6299999999999 3526ZM1045.9 3535.11L1040.73 3535.11L1040.73 3527.82L1045.9 3527.82ZM1040.73 3574.99L1040.73 3536.93L1045.9 3536.93L1045.9 3574.99L1043.3200000000002 3580.4599999999996Z " fill="#f8d49a" fill-opacity="1" transform="matrix(1,0,0,1,-992,-3526)"></path><path id="SvgjsPath1047" d="M999 3539L999 3537L1009 3537L1009 3539Z " fill="#f8d49a" fill-opacity="1" transform="matrix(1,0,0,1,-992,-3526)"></path><path id="SvgjsPath1048" d="M999 3548L999 3546L1022 3546L1022 3548Z " fill="#f8d49a" fill-opacity="1" transform="matrix(1,0,0,1,-992,-3526)"></path><path id="SvgjsPath1049" d="M999 3555L999 3553L1022 3553L1022 3555Z " fill="#f8d49a" fill-opacity="1" transform="matrix(1,0,0,1,-992,-3526)"></path><path id="SvgjsPath1050" d="M999 3563L999 3561L1022 3561L1022 3563Z " fill="#f8d49a" fill-opacity="1" transform="matrix(1,0,0,1,-992,-3526)"></path><path id="SvgjsPath1051" d="M999 3570L999 3568L1022 3568L1022 3570Z " fill="#f8d49a" fill-opacity="1" transform="matrix(1,0,0,1,-992,-3526)"></path></svg>