<svg id="SvgjsSvg1069" xmlns="http://www.w3.org/2000/svg" version="1.1" xmlns:xlink="http://www.w3.org/1999/xlink" xmlns:svgjs="http://svgjs.com/svgjs" width="181" height="69" viewBox="0 0 181 69"><title>logo_sop1</title><desc>Created with Avocode.</desc><defs id="SvgjsDefs1070"></defs><path id="SvgjsPath1071" d="M144.35 4955.25C143.57999999999998 4955.65 142.73999999999998 4955.8 141.9 4955.8C141.13 4955.8 140.42000000000002 4955.650000000001 139.79 4955.41C139.16 4955.18 138.6 4954.71 138.10999999999999 4954.08C137.69 4953.45 137.33999999999997 4952.75 137.13 4951.8099999999995C136.92 4950.87 136.99 4949.7699999999995 137.2 4948.44C137.33999999999997 4947.11 137.69 4945.929999999999 138.17999999999998 4944.99C138.67 4944.05 139.23 4943.2699999999995 139.85999999999999 4942.719999999999C140.48999999999998 4942.099999999999 141.2 4941.699999999999 141.97 4941.389999999999C142.74 4941.16 143.44 4940.999999999999 144.21 4940.999999999999C145.05 4940.999999999999 145.83 4941.159999999999 146.46 4941.549999999999C147.09 4941.94 147.65 4942.409999999999 148.14000000000001 4943.039999999999L146.46 4944.759999999999C146.18 4944.289999999999 145.83 4943.98 145.34 4943.659999999999C144.91 4943.429999999999 144.42000000000002 4943.269999999999 143.93 4943.269999999999C142.74 4943.269999999999 141.69 4943.659999999999 140.92000000000002 4944.519999999999C140.14000000000001 4945.3899999999985 139.58 4946.6399999999985 139.3 4948.359999999999C139.02 4950.089999999998 139.16000000000003 4951.339999999998 139.72 4952.199999999999C140.28 4953.059999999999 141.13 4953.449999999999 142.39 4953.449999999999C142.95 4953.449999999999 143.51 4953.299999999999 144 4952.979999999999C144.56 4952.669999999998 144.98 4952.359999999999 145.34 4951.969999999998L146.46 4953.689999999999C145.83 4954.3899999999985 145.12 4954.859999999999 144.35 4955.249999999999Z " fill="#de720f" fill-opacity="1" transform="matrix(1,0,0,1,-137,-4893)"></path><path id="SvgjsPath1072" d="M158.54 4941.63C159.17 4942.02 159.73 4942.64 160.01 4943.43C160.22 4943.9800000000005 160.37 4944.6 160.37 4945.31C160.37 4946.09 160.37 4946.870000000001 160.15 4947.81C159.94 4949.070000000001 159.73000000000002 4950.09 159.45000000000002 4950.950000000001C159.17000000000002 4951.81 158.89000000000001 4952.510000000001 158.47000000000003 4953.06C157.91000000000003 4953.92 157.14000000000001 4954.55 156.30000000000004 4955.02C155.38000000000005 4955.490000000001 154.47000000000003 4955.72 153.42000000000004 4955.72C152.51000000000005 4955.72 151.67000000000004 4955.570000000001 150.96000000000004 4955.18C150.26000000000005 4954.780000000001 149.77000000000004 4954.240000000001 149.42000000000004 4953.530000000001C149.14000000000004 4952.900000000001 149.00000000000006 4952.200000000001 149.00000000000006 4951.340000000001C149.00000000000006 4950.480000000001 149.07000000000005 4949.540000000001 149.28000000000006 4948.3600000000015C149.42000000000004 4947.580000000002 149.56000000000006 4946.800000000001 149.77000000000007 4946.090000000001C149.98000000000008 4945.390000000001 150.26000000000008 4944.760000000001 150.54000000000008 4944.210000000001C151.17000000000007 4943.1900000000005 151.95000000000007 4942.330000000001 152.86000000000007 4941.780000000001C153.98000000000008 4941.31 155.03000000000006 4941.000000000001 156.16000000000008 4941.000000000001C157.07000000000008 4941.000000000001 157.91000000000008 4941.2300000000005 158.54000000000008 4941.630000000001ZM153.91 4943.74C153.35 4944.13 152.93 4944.599999999999 152.51 4945.23C152.23 4945.7 152.01999999999998 4946.169999999999 151.88 4946.719999999999C151.74 4947.2699999999995 151.6 4947.8099999999995 151.53 4948.5199999999995C151.46 4949.15 151.39000000000001 4949.7699999999995 151.32 4950.24C151.23999999999998 4950.79 151.32 4951.26 151.39 4951.65C151.52999999999997 4952.28 151.80999999999997 4952.75 152.23 4953.139999999999C152.64999999999998 4953.45 153.14 4953.69 153.84 4953.69C154.54 4953.69 155.17000000000002 4953.45 155.81 4953.0599999999995C156.44 4952.669999999999 156.93 4951.969999999999 157.28 4951.099999999999C157.42 4950.789999999999 157.56 4950.32 157.63 4949.929999999999C157.7 4949.459999999999 157.84 4948.829999999999 157.98 4948.049999999999C158.04999999999998 4947.499999999999 158.11999999999998 4946.949999999999 158.11999999999998 4946.5599999999995C158.11999999999998 4946.089999999999 158.11999999999998 4945.7 158.04999999999998 4945.389999999999C157.91 4944.679999999999 157.63 4944.129999999999 157.20999999999998 4943.82C156.92999999999998 4943.429999999999 156.36999999999998 4943.19 155.73 4943.19C155.1 4943.19 154.47 4943.349999999999 153.91 4943.74Z " fill="#de720f" fill-opacity="1" transform="matrix(1,0,0,1,-137,-4893)"></path><path id="SvgjsPath1073" d="M172.38 4952.98C172.1 4953.53 171.68 4953.919999999999 171.26 4954.3099999999995C170.84 4954.709999999999 170.35 4955.0199999999995 169.79 4955.179999999999C169.23 4955.409999999999 168.66 4955.49 168.17 4955.49L162 4955.49L164.32 4941L169.93 4941C170.63 4941 171.26000000000002 4941.08 171.82 4941.31C172.31 4941.55 172.73 4941.780000000001 173.07999999999998 4942.17C173.36999999999998 4942.57 173.57999999999998 4942.96 173.71999999999997 4943.43C173.85999999999996 4943.900000000001 173.85999999999996 4944.450000000001 173.71999999999997 4944.990000000001C173.64999999999998 4945.540000000001 173.43999999999997 4946.090000000001 173.07999999999998 4946.64C172.73 4947.1900000000005 172.17 4947.660000000001 171.46999999999997 4947.97C172.16999999999996 4948.21 172.65999999999997 4948.68 172.86999999999998 4949.3C173.07999999999998 4950.01 173.14999999999998 4950.63 173.00999999999996 4951.26C172.93999999999997 4951.89 172.72999999999996 4952.4400000000005 172.37999999999997 4952.9800000000005ZM164.53 4953.3L168.03 4953.3C168.88 4953.3 169.51 4953.06 170 4952.67C170.49 4952.28 170.77 4951.7300000000005 170.84 4951.18C170.91 4950.63 170.77 4950.09 170.49 4949.6900000000005C170.14000000000001 4949.22 169.58 4949.070000000001 168.73000000000002 4949.070000000001L165.23000000000002 4949.070000000001ZM165.51 4947.19L168.73 4947.19C169.64999999999998 4947.19 170.35 4946.95 170.76999999999998 4946.5599999999995C171.18999999999997 4946.169999999999 171.46999999999997 4945.7 171.54 4945.15C171.60999999999999 4944.599999999999 171.47 4944.129999999999 171.19 4943.74C170.84 4943.349999999999 170.28 4943.19 169.44 4943.19L166.14 4943.19Z " fill="#de720f" fill-opacity="1" transform="matrix(1,0,0,1,-137,-4893)"></path><path id="SvgjsPath1074" d="M178.05 4942.8L178.12 4942.8C178.75 4942.17 179.38 4941.7 180.02 4941.39C180.65 4941.160000000001 181.28 4941 181.98000000000002 4941C182.89000000000001 4941 183.66000000000003 4941.23 184.15 4941.63C184.72 4942.02 185.07 4942.57 185.35 4943.27C185.56 4943.9800000000005 185.7 4944.76 185.7 4945.620000000001C185.7 4946.4800000000005 185.63 4947.340000000001 185.48999999999998 4948.280000000001C185.35 4949.22 185.14 4950.160000000001 184.85999999999999 4951.030000000001C184.57999999999998 4951.89 184.14999999999998 4952.750000000001 183.66 4953.450000000001C183.17 4954.160000000001 182.54 4954.710000000001 181.84 4955.18C181.14000000000001 4955.650000000001 180.23 4955.8 179.24 4955.8C178.61 4955.8 178.05 4955.72 177.56 4955.49C177.07 4955.25 176.65 4954.86 176.37 4954.389999999999L176.3 4954.389999999999L175.17000000000002 4961.44L173.00000000000003 4961.44L176.23000000000002 4941.16L178.33 4941.16ZM177 4950.16C177 4950.79 177 4951.34 177.14 4951.8099999999995C177.27999999999997 4952.28 177.48999999999998 4952.669999999999 177.83999999999997 4952.98C178.18999999999997 4953.299999999999 178.67999999999998 4953.45 179.30999999999997 4953.45C180.01999999999998 4953.45 180.57999999999998 4953.3 180.99999999999997 4952.98C181.41999999999996 4952.669999999999 181.83999999999997 4952.28 182.11999999999998 4951.8099999999995C182.39999999999998 4951.339999999999 182.60999999999999 4950.789999999999 182.81999999999996 4950.16C182.95999999999995 4949.54 183.09999999999997 4948.99 183.16999999999996 4948.36C183.23999999999995 4947.8099999999995 183.30999999999995 4947.19 183.37999999999997 4946.639999999999C183.44999999999996 4946.009999999999 183.37999999999997 4945.459999999999 183.23999999999998 4944.99C183.1 4944.5199999999995 182.89 4944.05 182.54 4943.74C182.19 4943.429999999999 181.7 4943.2699999999995 181 4943.2699999999995C180.37 4943.2699999999995 179.81 4943.429999999999 179.31 4943.74C178.89000000000001 4944.05 178.47 4944.5199999999995 178.19 4944.99C177.91 4945.46 177.63 4946.01 177.49 4946.639999999999C177.42000000000002 4947.339999999999 177.28 4947.889999999999 177.21 4948.44C177.14000000000001 4948.99 177.07000000000002 4949.54 177 4950.16Z " fill="#de720f" fill-opacity="1" transform="matrix(1,0,0,1,-137,-4893)"></path><path id="SvgjsPath1075" d="M190.48 4949.22L190.41 4949.46C190.34 4950.01 190.34 4950.56 190.34 4951.1C190.41 4951.650000000001 190.55 4952.04 190.76 4952.4400000000005C190.97 4952.830000000001 191.25 4953.14 191.67999999999998 4953.3C192.02999999999997 4953.53 192.51999999999998 4953.610000000001 193.07999999999998 4953.610000000001C193.49999999999997 4953.610000000001 193.98999999999998 4953.530000000001 194.54999999999998 4953.3C195.10999999999999 4953.06 195.67 4952.75 196.17 4952.28L197.29 4954C196.59 4954.63 195.81 4955.1 194.97 4955.41C194.13 4955.72 193.35999999999999 4955.88 192.52 4955.88C191.89000000000001 4955.88 191.18 4955.8 190.62 4955.57C189.99 4955.33 189.5 4955.0199999999995 189.01 4954.469999999999C188.59 4953.919999999999 188.23999999999998 4953.139999999999 188.1 4952.199999999999C187.96 4951.259999999999 187.96 4950.009999999999 188.17 4948.519999999999C188.38 4947.109999999999 188.73 4945.9299999999985 189.22 4944.919999999998C189.71 4943.899999999998 190.27 4943.189999999999 190.83 4942.6399999999985C191.47 4942.0999999999985 192.10000000000002 4941.629999999998 192.8 4941.3899999999985C193.5 4941.159999999999 194.13000000000002 4940.999999999998 194.76000000000002 4940.999999999998C195.46 4940.999999999998 196.10000000000002 4941.159999999998 196.73000000000002 4941.3899999999985C197.29000000000002 4941.699999999999 197.78000000000003 4942.0999999999985 198.20000000000002 4942.6399999999985C198.55 4943.189999999999 198.83 4943.819999999999 198.97000000000003 4944.6799999999985C199.11 4945.459999999998 199.11 4946.399999999999 198.97000000000003 4947.419999999998L198.69000000000003 4949.299999999998L190.48000000000002 4949.299999999998ZM192.17 4944.29C191.54 4944.99 191.04 4945.93 190.76 4947.19L196.87 4947.19C197.01 4945.86 196.87 4944.919999999999 196.45000000000002 4944.21C196.10000000000002 4943.58 195.39000000000001 4943.27 194.48000000000002 4943.27C193.57000000000002 4943.27 192.8 4943.580000000001 192.17000000000002 4944.290000000001Z " fill="#de720f" fill-opacity="1" transform="matrix(1,0,0,1,-137,-4893)"></path><path id="SvgjsPath1076" d="M210.66 4956.41L212.14 4947.09C211.92999999999998 4947.400000000001 211.79 4947.72 211.57999999999998 4948.03C211.36999999999998 4948.34 211.21999999999997 4948.66 211.01 4948.969999999999L207.64999999999998 4954.369999999999L205.89 4954.369999999999L204.14 4948.889999999999L203.64999999999998 4947.169999999999L202.17 4956.489999999999L200 4956.489999999999L202.32 4941.999999999999L204.35 4941.999999999999L206.31 4948.889999999999C206.45 4949.44 206.59 4949.91 206.73 4950.459999999999C206.88 4950.929999999999 207.01999999999998 4951.48 207.16 4952.029999999999C207.44 4951.559999999999 207.79 4951.009999999998 208.07 4950.459999999999C208.35 4949.909999999999 208.63 4949.359999999999 208.98 4948.889999999999L213.11999999999998 4941.999999999999L215.14999999999998 4941.999999999999L212.76999999999998 4956.409999999999Z " fill="#de720f" fill-opacity="1" transform="matrix(1,0,0,1,-137,-4893)"></path><path id="SvgjsPath1077" d="M218.48 4949.22L218.41 4949.46C218.34 4950.01 218.34 4950.56 218.34 4951.1C218.41 4951.650000000001 218.55 4952.04 218.76 4952.4400000000005C218.97 4952.830000000001 219.25 4953.14 219.67999999999998 4953.3C220.02999999999997 4953.53 220.51999999999998 4953.610000000001 221.07999999999998 4953.610000000001C221.49999999999997 4953.610000000001 221.98999999999998 4953.530000000001 222.54999999999998 4953.3C223.10999999999999 4953.06 223.67 4952.75 224.17 4952.28L225.29 4954C224.59 4954.63 223.81 4955.1 222.97 4955.41C222.13 4955.72 221.35999999999999 4955.88 220.52 4955.88C219.89000000000001 4955.88 219.18 4955.8 218.62 4955.57C217.99 4955.33 217.5 4955.0199999999995 217.01 4954.469999999999C216.59 4953.919999999999 216.23999999999998 4953.139999999999 216.1 4952.199999999999C215.96 4951.259999999999 215.96 4950.009999999999 216.17 4948.519999999999C216.38 4947.109999999999 216.73 4945.9299999999985 217.22 4944.919999999998C217.71 4943.899999999998 218.27 4943.189999999999 218.83 4942.6399999999985C219.47 4942.0999999999985 220.10000000000002 4941.629999999998 220.8 4941.3899999999985C221.5 4941.159999999999 222.13000000000002 4940.999999999998 222.76000000000002 4940.999999999998C223.46 4940.999999999998 224.10000000000002 4941.159999999998 224.73000000000002 4941.3899999999985C225.29000000000002 4941.699999999999 225.78000000000003 4942.0999999999985 226.20000000000002 4942.6399999999985C226.55 4943.189999999999 226.83 4943.819999999999 226.97000000000003 4944.6799999999985C227.11 4945.459999999998 227.11 4946.399999999999 226.97000000000003 4947.419999999998L226.69000000000003 4949.299999999998L218.48000000000002 4949.299999999998ZM220.17 4944.29C219.54 4944.99 219.04 4945.93 218.76 4947.19L224.87 4947.19C225.01 4945.86 224.87 4944.919999999999 224.45000000000002 4944.21C224.03000000000003 4943.58 223.39000000000001 4943.27 222.48000000000002 4943.27C221.57000000000002 4943.27 220.8 4943.580000000001 220.17000000000002 4944.290000000001Z " fill="#de720f" fill-opacity="1" transform="matrix(1,0,0,1,-137,-4893)"></path><path id="SvgjsPath1078" d="M236.21 4955.49L237.19 4949.15L231.16 4949.15L230.17 4955.49L228 4955.49L230.32 4941L232.48999999999998 4941L231.51 4947.19L237.54 4947.19L238.51999999999998 4941L240.7 4941L238.38 4955.49Z " fill="#de720f" fill-opacity="1" transform="matrix(1,0,0,1,-137,-4893)"></path><path id="SvgjsPath1079" d="M250.21 4955.49L251.19 4949.15L245.16 4949.15L244.17 4955.49L242 4955.49L244.32 4941L246.48999999999998 4941L245.51 4947.19L251.54 4947.19L252.51999999999998 4941L254.7 4941L252.38 4955.49Z " fill="#de720f" fill-opacity="1" transform="matrix(1,0,0,1,-137,-4893)"></path><path id="SvgjsPath1080" d="M262.23 4946.64C262.93 4946.64 263.63 4946.72 264.12 4946.950000000001C264.61 4947.1900000000005 265.1 4947.500000000001 265.38 4947.89C265.65999999999997 4948.280000000001 265.94 4948.75 266.01 4949.3C266.15 4949.85 266.15 4950.400000000001 266.01 4951.03C265.8 4952.36 265.24 4953.45 264.33 4954.24C263.41999999999996 4955.0199999999995 262.22999999999996 4955.49 260.75 4955.49L255 4955.49L257.32 4941L259.49 4941L258.58 4946.64ZM263.56 4949.54C263.28000000000003 4949.07 262.72 4948.83 261.88 4948.83L258.3 4948.83L257.6 4953.3L261.17 4953.3C261.95 4953.3 262.51 4953.14 263 4952.75C263.42 4952.36 263.7 4951.81 263.84 4951.03C263.90999999999997 4950.48 263.84 4950.009999999999 263.56 4949.54ZM266.86 4955.49L269.03000000000003 4955.49L271.35 4941L269.17 4941Z " fill="#de720f" fill-opacity="1" transform="matrix(1,0,0,1,-137,-4893)"></path><path id="SvgjsPath1081" d="M275.48 4949.22L275.41 4949.46C275.34000000000003 4950.01 275.27000000000004 4950.56 275.34000000000003 4951.1C275.41 4951.650000000001 275.55 4952.04 275.76000000000005 4952.4400000000005C275.97 4952.830000000001 276.25000000000006 4953.14 276.68000000000006 4953.3C277.0300000000001 4953.53 277.52000000000004 4953.610000000001 278.08000000000004 4953.610000000001C278.50000000000006 4953.610000000001 278.99000000000007 4953.530000000001 279.55000000000007 4953.3C280.11000000000007 4953.06 280.6700000000001 4952.75 281.1700000000001 4952.28L282.2900000000001 4954C281.5900000000001 4954.63 280.81000000000006 4955.1 279.9700000000001 4955.41C279.1300000000001 4955.72 278.36000000000007 4955.88 277.5200000000001 4955.88C276.8900000000001 4955.88 276.1800000000001 4955.8 275.6200000000001 4955.57C274.9900000000001 4955.33 274.5000000000001 4955.0199999999995 274.0100000000001 4954.469999999999C273.5900000000001 4953.919999999999 273.2400000000001 4953.139999999999 273.1000000000001 4952.199999999999C272.9600000000001 4951.259999999999 272.9600000000001 4950.009999999999 273.1700000000001 4948.519999999999C273.38000000000005 4947.109999999999 273.7300000000001 4945.9299999999985 274.2200000000001 4944.919999999998C274.7100000000001 4943.899999999998 275.2700000000001 4943.189999999999 275.8300000000001 4942.6399999999985C276.4700000000001 4942.0999999999985 277.1000000000001 4941.629999999998 277.8000000000001 4941.3899999999985C278.5000000000001 4941.159999999999 279.1300000000001 4940.999999999998 279.7600000000001 4940.999999999998C280.4600000000001 4940.999999999998 281.1000000000001 4941.159999999998 281.73000000000013 4941.3899999999985C282.29000000000013 4941.699999999999 282.78000000000014 4942.0999999999985 283.20000000000016 4942.6399999999985C283.5500000000002 4943.189999999999 283.83000000000015 4943.819999999999 283.97000000000014 4944.6799999999985C284.1100000000001 4945.459999999998 284.1100000000001 4946.399999999999 283.97000000000014 4947.419999999998L283.69000000000017 4949.299999999998L275.4800000000002 4949.299999999998ZM277.17 4944.29C276.54 4944.99 276.04 4945.93 275.76 4947.19L281.87 4947.19C282.01 4945.86 281.87 4944.919999999999 281.45 4944.21C281.03 4943.58 280.32 4943.27 279.47999999999996 4943.27C278.56999999999994 4943.27 277.79999999999995 4943.580000000001 277.16999999999996 4944.290000000001Z " fill="#de720f" fill-opacity="1" transform="matrix(1,0,0,1,-137,-4893)"></path><path id="SvgjsPath1082" d="M153.68 4907.86C154.81 4908.41 155.72 4909.19 156.42000000000002 4910.13C157.12 4911.07 157.61 4912.25 157.82000000000002 4913.58C158.03000000000003 4914.91 158.03000000000003 4916.4 157.82000000000002 4917.97L156.77 4924.62C156.49 4926.2699999999995 156 4927.83 155.37 4929.17C154.67000000000002 4930.5 153.82 4931.67 152.84 4932.61C151.86 4933.549999999999 150.67000000000002 4934.33 149.4 4934.799999999999C148.07 4935.349999999999 146.74 4935.589999999999 145.19 4935.589999999999C143.57999999999998 4935.589999999999 142.18 4935.2699999999995 141.06 4934.73C139.93 4934.099999999999 139.02 4933.32 138.39000000000001 4932.299999999999C137.76000000000002 4931.279999999999 137.34 4930.11 137.13000000000002 4928.7699999999995C136.92000000000002 4927.44 136.99000000000004 4926.03 137.20000000000002 4924.62L138.25000000000003 4917.97C138.46000000000004 4916.4800000000005 138.88000000000002 4915.150000000001 139.51000000000002 4913.81C140.14000000000001 4912.4800000000005 140.92000000000002 4911.31 141.9 4910.29C142.88 4909.2699999999995 144 4908.49 145.34 4907.86C146.53 4907.3099999999995 148 4907 149.68 4907C151.23000000000002 4907 152.56 4907.31 153.68 4907.86ZM146.81 4913.19C146.25 4913.419999999999 145.76 4913.8099999999995 145.41 4914.21C144.98 4914.6 144.63 4915.15 144.42 4915.69C144.14 4916.24 144 4916.79 143.92999999999998 4917.339999999999L142.73999999999998 4924.94C142.67 4925.5599999999995 142.6 4926.11 142.73999999999998 4926.74C142.80999999999997 4927.29 143.01999999999998 4927.83 143.29999999999998 4928.23C143.57999999999998 4928.7 143.92999999999998 4929.009999999999 144.42 4929.24C144.91 4929.48 145.48 4929.639999999999 146.17999999999998 4929.639999999999C147.51 4929.639999999999 148.62999999999997 4929.169999999999 149.54 4928.299999999999C150.45999999999998 4927.44 150.95 4926.2699999999995 151.16 4924.94L152.35 4917.339999999999C152.56 4916.089999999999 152.35 4915.069999999999 151.72 4914.129999999999C151.02 4913.2699999999995 150.04 4912.799999999999 148.7 4912.799999999999C148 4912.799999999999 147.36999999999998 4912.949999999999 146.81 4913.19Z " fill="#ffffff" fill-opacity="1" transform="matrix(1,0,0,1,-137,-4893)"></path><path id="SvgjsPath1083" d="M172.89 4924.56C173.58999999999997 4924.79 174.14999999999998 4925.34 174.42999999999998 4925.97C174.70999999999998 4926.67 174.92999999999998 4927.45 174.99999999999997 4928.39L175.76999999999998 4934.820000000001L170.43999999999997 4934.820000000001L169.93999999999997 4930.120000000001C169.72999999999996 4928.780000000001 169.37999999999997 4928.000000000001 168.88999999999996 4927.610000000001C168.39999999999995 4927.22 167.76999999999995 4927.06 167.13999999999996 4927.06L165.44999999999996 4927.06L164.18999999999997 4934.89L158.99999999999997 4934.89L162.15999999999997 4915L167.34999999999997 4915L166.15999999999997 4922.6L167.69999999999996 4922.6C167.97999999999996 4922.6 168.25999999999996 4922.6 168.60999999999996 4922.52C168.88999999999996 4922.4400000000005 169.23999999999995 4922.360000000001 169.58999999999995 4922.13C169.93999999999994 4921.89 170.21999999999994 4921.66 170.57999999999996 4921.27C170.85999999999996 4920.870000000001 171.20999999999995 4920.330000000001 171.48999999999995 4919.700000000001L173.51999999999995 4915.000000000001L178.63999999999996 4915.000000000001L176.11999999999995 4920.800000000001C175.76999999999995 4921.740000000001 175.27999999999994 4922.520000000001 174.77999999999994 4923.1500000000015C174.28999999999994 4923.770000000001 173.65999999999994 4924.240000000002 173.02999999999994 4924.480000000001Z " fill="#ffffff" fill-opacity="1" transform="matrix(1,0,0,1,-137,-4893)"></path><path id="SvgjsPath1084" d="M190.08 4934.97L191.35000000000002 4927.14L185.38000000000002 4927.14L184.12000000000003 4934.97L179.00000000000003 4934.97L182.16000000000003 4915L187.28000000000003 4915L186.09000000000003 4922.75L192.05000000000004 4922.75L193.24000000000004 4915L198.29000000000005 4915L195.14000000000004 4934.97Z " fill="#ffffff" fill-opacity="1" transform="matrix(1,0,0,1,-137,-4893)"></path><path id="SvgjsPath1085" d="M209.05 4933.33L208.98000000000002 4933.25C208.63000000000002 4933.64 208.21 4933.95 207.79000000000002 4934.27C207.37000000000003 4934.5 206.95000000000002 4934.740000000001 206.52 4934.89C206.10000000000002 4935.05 205.68 4935.13 205.26000000000002 4935.21C204.84000000000003 4935.29 204.49 4935.29 204.21 4935.29C203.37 4935.29 202.53 4935.13 201.89000000000001 4934.89C201.19000000000003 4934.660000000001 200.63000000000002 4934.27 200.14000000000001 4933.8C199.72000000000003 4933.33 199.37 4932.7 199.16000000000003 4931.92C198.95000000000002 4931.13 198.95000000000002 4930.1900000000005 199.16000000000003 4929.18C199.3 4928.31 199.58 4927.530000000001 200.00000000000003 4926.83C200.42000000000002 4926.04 200.91000000000003 4925.42 201.54000000000002 4924.87C202.17000000000002 4924.32 202.95000000000002 4923.849999999999 203.79000000000002 4923.54C204.63000000000002 4923.22 205.61 4923.07 206.66000000000003 4923.07L210.73000000000002 4923.07L210.8 4922.44C210.8 4922.21 210.87 4921.969999999999 210.8 4921.66C210.8 4921.34 210.66000000000003 4921.11 210.52 4920.87C210.38000000000002 4920.64 210.10000000000002 4920.4 209.75 4920.25C209.4 4920.09 208.84 4920.01 208.21 4920.01C207.37 4920.01 206.59 4920.09 205.89000000000001 4920.33C205.19000000000003 4920.5599999999995 204.42000000000002 4920.95 203.72000000000003 4921.58L201.82000000000002 4917.66C203.09000000000003 4916.57 204.35000000000002 4915.86 205.68000000000004 4915.47C206.95000000000005 4915.16 208.28000000000003 4915 209.54000000000005 4915C210.59000000000006 4915 211.58000000000004 4915.08 212.42000000000004 4915.31C213.33000000000004 4915.55 214.10000000000005 4915.860000000001 214.66000000000005 4916.410000000001C215.22000000000006 4916.960000000001 215.71000000000006 4917.660000000001 216.00000000000006 4918.52C216.28000000000006 4919.39 216.28000000000006 4920.4800000000005 216.07000000000005 4921.81L213.96000000000004 4935.21L208.77000000000004 4935.21ZM206.66 4927.3C206.17 4927.3 205.82 4927.37 205.54 4927.45C205.26 4927.53 204.98 4927.69 204.84 4927.84C204.63 4928 204.56 4928.16 204.49 4928.31C204.42000000000002 4928.47 204.35000000000002 4928.63 204.35000000000002 4928.860000000001C204.35000000000002 4929.02 204.35000000000002 4929.18 204.35000000000002 4929.410000000001C204.35000000000002 4929.650000000001 204.49 4929.800000000001 204.63000000000002 4930.040000000001C204.77 4930.27 204.98000000000002 4930.430000000001 205.26000000000002 4930.590000000001C205.54000000000002 4930.740000000001 205.96 4930.820000000001 206.52 4930.820000000001C207.3 4930.820000000001 208.07000000000002 4930.590000000001 208.77 4930.1900000000005C209.47 4929.72 209.89000000000001 4929.1 210.03 4928.080000000001L210.03 4927.300000000001Z " fill="#ffffff" fill-opacity="1" transform="matrix(1,0,0,1,-137,-4893)"></path><path id="SvgjsPath1086" d="M231.82 4935.12L235.4 4912.64L227.12 4912.64L223.54 4935.12L218 4935.12L222.42 4907L241.70999999999998 4907L237.29 4935.12Z " fill="#ffffff" fill-opacity="1" transform="matrix(1,0,0,1,-137,-4893)"></path><path id="SvgjsPath1087" d="M261.43 4930.11C260.87 4931.12 260.17 4931.98 259.33 4932.7699999999995C258.49 4933.469999999999 257.57 4934.099999999999 256.59 4934.49C255.60999999999999 4934.88 254.55999999999997 4935.12 253.50999999999996 4935.12L241.99999999999997 4935.12L246.41999999999996 4907L257.00999999999993 4907C258.3499999999999 4907 259.4699999999999 4907.16 260.44999999999993 4907.55C261.42999999999995 4907.9400000000005 262.19999999999993 4908.49 262.8399999999999 4909.1900000000005C263.4699999999999 4909.900000000001 263.81999999999994 4910.76 264.0299999999999 4911.700000000001C264.2399999999999 4912.720000000001 264.2399999999999 4913.740000000001 264.0999999999999 4914.910000000001C263.9599999999999 4915.930000000001 263.5399999999999 4916.950000000001 262.9099999999999 4917.970000000001C262.2699999999999 4918.980000000001 261.2899999999999 4919.770000000001 260.0999999999999 4920.390000000001L260.0999999999999 4920.550000000001C260.6599999999999 4920.780000000001 261.0799999999999 4921.180000000001 261.4299999999999 4921.5700000000015C261.7799999999999 4922.040000000002 262.0599999999999 4922.510000000001 262.26999999999987 4923.130000000002C262.4899999999999 4923.760000000002 262.6299999999999 4924.310000000002 262.6999999999999 4924.940000000002C262.76999999999987 4925.480000000002 262.6999999999999 4926.0300000000025 262.6299999999999 4926.660000000003C262.4199999999999 4927.910000000003 262.0599999999999 4929.090000000003 261.4299999999999 4930.110000000002ZM256.94 4925.17C256.87 4924.78 256.73 4924.47 256.52 4924.15C256.31 4923.839999999999 255.95999999999998 4923.599999999999 255.60999999999999 4923.45C255.19 4923.29 254.7 4923.21 254.14 4923.21L249.36999999999998 4923.21L248.37999999999997 4929.4L253.14999999999998 4929.4C254.34999999999997 4929.4 255.26 4929.089999999999 255.81999999999996 4928.46C256.45 4927.91 256.79999999999995 4927.13 256.93999999999994 4926.35C257.00999999999993 4925.950000000001 257.00999999999993 4925.56 256.93999999999994 4925.17ZM257.71 4913.19C257.28999999999996 4912.719999999999 256.52 4912.4 255.39999999999998 4912.4L251.11999999999998 4912.4L250.20999999999998 4918.04L254.48999999999998 4918.04C255.67999999999998 4918.04 256.52 4917.73 257.08 4917.18C257.71 4916.56 258 4915.93 258.14 4915.150000000001C258.28 4914.360000000001 258.14 4913.740000000001 257.71 4913.1900000000005Z " fill="#ffffff" fill-opacity="1" transform="matrix(1,0,0,1,-137,-4893)"></path><path id="SvgjsPath1088" d="M279.35 4935.12L275.77000000000004 4925.95L269.31000000000006 4935.12L263.00000000000006 4935.12L273.80000000000007 4920.71L267.9100000000001 4907L274.2200000000001 4907L277.3800000000001 4915.46L283.2000000000001 4907L289.5200000000001 4907L279.2800000000001 4920.71L285.5900000000001 4935.12Z " fill="#ffffff" fill-opacity="1" transform="matrix(1,0,0,1,-137,-4893)"></path><path id="SvgjsPath1089" d="M289 4955.5L309.84 4955.42L314.67999999999995 4919L293.69999999999993 4919.23Z " fill="#ffffff" fill-opacity="1" transform="matrix(1,0,0,1,-137,-4893)"></path><path id="SvgjsPath1090" d="M294 4913.99L314.77 4913.83L317.5 4893.08L296.74 4893Z " fill="#de720f" fill-opacity="1" transform="matrix(1,0,0,1,-137,-4893)"></path><path id="SvgjsPath1091" d="M291.33 4902.48L266 4902.48L267.26 4893.08L292.59 4893 " fill="#de720f" fill-opacity="1" transform="matrix(1,0,0,1,-137,-4893)"></path></svg>