<svg id="SvgjsSvg1000" xmlns="http://www.w3.org/2000/svg" version="1.1" xmlns:xlink="http://www.w3.org/1999/xlink" xmlns:svgjs="http://svgjs.com/svgjs" width="239" height="96" viewBox="0 0 239 96"><title>logo_sop1</title><desc>Created with Avocode.</desc><defs id="SvgjsDefs1001"></defs><path id="SvgjsPath1007" d="M144.67 145.62C143.64999999999998 146.16 142.54999999999998 146.37 141.44 146.37C140.43 146.37 139.5 146.16 138.67 145.83C137.83999999999997 145.51000000000002 137.1 144.86 136.45999999999998 144C135.90999999999997 143.14 135.43999999999997 142.17 135.17 140.88C134.89 139.57999999999998 134.98 138.07 135.26 136.24C135.44 134.41 135.91 132.79000000000002 136.54999999999998 131.5C137.2 130.2 137.92999999999998 129.13 138.76 128.37C139.6 127.51 140.51999999999998 126.97 141.53 126.54C142.55 126.22000000000001 143.47 126 144.48 126C145.59 126 146.60999999999999 126.22 147.44 126.75C148.27 127.29 149 127.94 149.65 128.8L147.44 131.17000000000002C147.07 130.53000000000003 146.60999999999999 130.10000000000002 145.96 129.67000000000002C145.41 129.34 144.76000000000002 129.13000000000002 144.12 129.13000000000002C142.55 129.13000000000002 141.16 129.67000000000002 140.15 130.85000000000002C139.13 132.04000000000002 138.4 133.76000000000002 138.03 136.13000000000002C137.66 138.50000000000003 137.84 140.23000000000002 138.58 141.41000000000003C139.32000000000002 142.60000000000002 140.43 143.14000000000001 142.09 143.14000000000001C142.82 143.14000000000001 143.56 142.92000000000002 144.21 142.49C144.95000000000002 142.06 145.5 141.63 145.96 141.09L147.44 143.46C146.60999999999999 144.43 145.68 145.08 144.67 145.62Z " fill="#de720f" fill-opacity="1" transform="matrix(1,0,0,1,-134,-59)"></path><path id="SvgjsPath1008" d="M162.55 126.86C163.38000000000002 127.4 164.11 128.26 164.48000000000002 129.34C164.76000000000002 130.1 164.94000000000003 130.96 164.94000000000003 131.93C164.94000000000003 133.01000000000002 164.94000000000003 134.08 164.67000000000002 135.38C164.39000000000001 137.1 164.11 138.5 163.74 139.69C163.38 140.88 163.01000000000002 141.85 162.45000000000002 142.6C161.72000000000003 143.79 160.70000000000002 144.65 159.59 145.29999999999998C158.39000000000001 145.93999999999997 157.20000000000002 146.26999999999998 155.81 146.26999999999998C154.61 146.26999999999998 153.51 146.04999999999998 152.58 145.51C151.66000000000003 144.97 151.01000000000002 144.22 150.55 143.25C150.18 142.39 150 141.41 150 140.23C150 139.04 150.09 137.75 150.37 136.13C150.55 135.04999999999998 150.74 133.98 151.01 133.01C151.29 132.04 151.66 131.17 152.03 130.42C152.86 129.01999999999998 153.87 127.82999999999998 155.07 127.07999999999998C156.54999999999998 126.42999999999998 157.93 125.99999999999999 159.41 125.99999999999999C160.60999999999999 125.99999999999999 161.72 126.31999999999998 162.54999999999998 126.85999999999999ZM156.46 129.77C155.72 130.31 155.17000000000002 130.96 154.61 131.82000000000002C154.24 132.47000000000003 153.97000000000003 133.11 153.78 133.87000000000003C153.6 134.62000000000003 153.41 135.38000000000002 153.32 136.35000000000002C153.23 137.21000000000004 153.14 138.07000000000002 153.04 138.72000000000003C152.95 139.47000000000003 153.04 140.12000000000003 153.14 140.66000000000003C153.32 141.52000000000004 153.69 142.17000000000002 154.23999999999998 142.71000000000004C154.79999999999998 143.14000000000004 155.43999999999997 143.46000000000004 156.36999999999998 143.46000000000004C157.28999999999996 143.46000000000004 158.11999999999998 143.14000000000004 158.95 142.60000000000002C159.78 142.06000000000003 160.42 141.09000000000003 160.89 139.91000000000003C161.07 139.47000000000003 161.25 138.83 161.35 138.29000000000002C161.44 137.64000000000001 161.62 136.78000000000003 161.81 135.70000000000002C161.9 134.95000000000002 161.99 134.19000000000003 161.99 133.65C161.99 133.01000000000002 161.99 132.47 161.9 132.04C161.72 131.07 161.35 130.31 160.79 129.88C160.42 129.34 159.69 129.01999999999998 158.85999999999999 129.01999999999998C158.02999999999997 129.01999999999998 157.2 129.23 156.45999999999998 129.76999999999998Z " fill="#de720f" fill-opacity="1" transform="matrix(1,0,0,1,-134,-59)"></path><path id="SvgjsPath1009" d="M180.65 142.49C180.28 143.25 179.73000000000002 143.79000000000002 179.18 144.33C178.62 144.86 177.98000000000002 145.3 177.24 145.51000000000002C176.5 145.83 175.76000000000002 145.94000000000003 175.12 145.94000000000003L167 145.94000000000003L170.04 126.00000000000003L177.42 126.00000000000003C178.35 126.00000000000003 179.17999999999998 126.11000000000003 179.91 126.43000000000004C180.56 126.75000000000003 181.10999999999999 127.08000000000004 181.57999999999998 127.62000000000003C181.94 128.16000000000003 182.21999999999997 128.69000000000003 182.41 129.34000000000003C182.59 129.99000000000004 182.59 130.74000000000004 182.41 131.50000000000003C182.31 132.25000000000003 182.04 133.01000000000002 181.57999999999998 133.76000000000002C181.10999999999999 134.52 180.38 135.16000000000003 179.45 135.59000000000003C180.38 135.92000000000004 181.01999999999998 136.56000000000003 181.29999999999998 137.43000000000004C181.57999999999998 138.40000000000003 181.67 139.26000000000005 181.48 140.12000000000003C181.39 140.98000000000005 181.10999999999999 141.74000000000004 180.64999999999998 142.49000000000004ZM170.32 142.92L174.93 142.92C176.04000000000002 142.92 176.87 142.6 177.52 142.05999999999997C178.16 141.51999999999998 178.53 140.76999999999998 178.62 140.00999999999996C178.72 139.25999999999996 178.53 138.49999999999997 178.16 137.96999999999997C177.7 137.31999999999996 176.96 137.09999999999997 175.85999999999999 137.09999999999997L171.23999999999998 137.09999999999997ZM171.61 134.52L175.86 134.52C177.06 134.52 177.98000000000002 134.19 178.53 133.65C179.08 133.11 179.45 132.47 179.55 131.71C179.64000000000001 130.96 179.45000000000002 130.31 179.08 129.77C178.62 129.23000000000002 177.89000000000001 129.02 176.78 129.02L172.44 129.02Z " fill="#de720f" fill-opacity="1" transform="matrix(1,0,0,1,-134,-59)"></path><path id="SvgjsPath1010" d="M189.64 128.48L189.73 128.48C190.56 127.61999999999999 191.39 126.96999999999998 192.22 126.53999999999999C193.06 126.22 193.89 125.99999999999999 194.81 125.99999999999999C196.01 125.99999999999999 197.02 126.31999999999998 197.67000000000002 126.85999999999999C198.41000000000003 127.39999999999999 198.87 128.16 199.24 129.13C199.51000000000002 130.1 199.70000000000002 131.17 199.70000000000002 132.35999999999999C199.70000000000002 133.54999999999998 199.60000000000002 134.73 199.42000000000002 136.02999999999997C199.24 137.31999999999996 198.96 138.60999999999999 198.59 139.79999999999998C198.22 140.98 197.67000000000002 142.17 197.02 143.14C196.38000000000002 144.10999999999999 195.55 144.85999999999999 194.62 145.51C193.70000000000002 146.16 192.5 146.37 191.21 146.37C190.38 146.37 189.64000000000001 146.27 189 145.94C188.35 145.62 187.8 145.07999999999998 187.43 144.43L187.34 144.43L185.86 154.13L183 154.13L187.24 126.22L190.01000000000002 126.22ZM188.26 138.61C188.26 139.47000000000003 188.26 140.23000000000002 188.44 140.88000000000002C188.63 141.52 188.9 142.06000000000003 189.37 142.49000000000004C189.83 142.92000000000004 190.47 143.14000000000004 191.3 143.14000000000004C192.22 143.14000000000004 192.96 142.92000000000004 193.52 142.49000000000004C194.07000000000002 142.06000000000003 194.62 141.52000000000004 194.99 140.88000000000002C195.36 140.23000000000002 195.64000000000001 139.47000000000003 195.91 138.61C196.1 137.75 196.28 137 196.38 136.13000000000002C196.47 135.38000000000002 196.56 134.52 196.65 133.76000000000002C196.74 132.9 196.65 132.14000000000001 196.47 131.50000000000003C196.28 130.85000000000002 196.01 130.20000000000002 195.55 129.77000000000004C195.08 129.34000000000003 194.44 129.13000000000005 193.52 129.13000000000005C192.69 129.13000000000005 191.95000000000002 129.34000000000006 191.3 129.77000000000004C190.75 130.20000000000005 190.20000000000002 130.85000000000005 189.83 131.50000000000003C189.46 132.14000000000001 189.09 132.90000000000003 188.9 133.76000000000002C188.81 134.73000000000002 188.63 135.49 188.53 136.24C188.44 137 188.35 137.75 188.26 138.61Z " fill="#de720f" fill-opacity="1" transform="matrix(1,0,0,1,-134,-59)"></path><path id="SvgjsPath1011" d="M205.27 137.32L205.17000000000002 137.64C205.08 138.39999999999998 205.08 139.14999999999998 205.08 139.91C205.17000000000002 140.66 205.36 141.2 205.63000000000002 141.74C205.91000000000003 142.28 206.28000000000003 142.71 206.83 142.92000000000002C207.29000000000002 143.25000000000003 207.94000000000003 143.36 208.68 143.36C209.23000000000002 143.36 209.88 143.25 210.62 142.92000000000002C211.35 142.60000000000002 212.09 142.17000000000002 212.74 141.52L214.21 143.89000000000001C213.29000000000002 144.76000000000002 212.28 145.4 211.17000000000002 145.83C210.06 146.27 209.05 146.48000000000002 207.94000000000003 146.48000000000002C207.11 146.48000000000002 206.19000000000003 146.37 205.45000000000002 146.05C204.62 145.73000000000002 203.97000000000003 145.3 203.33 144.54000000000002C202.77 143.79000000000002 202.31 142.71 202.13000000000002 141.41000000000003C201.94000000000003 140.12000000000003 201.94000000000003 138.40000000000003 202.22000000000003 136.35000000000002C202.50000000000003 134.41000000000003 202.96000000000004 132.79000000000002 203.60000000000002 131.39000000000001C204.25000000000003 129.99 204.99 129.02 205.73000000000002 128.26000000000002C206.56000000000003 127.51000000000002 207.39000000000001 126.86000000000001 208.31000000000003 126.54000000000002C209.23000000000002 126.22000000000003 210.06000000000003 126.00000000000001 210.89000000000004 126.00000000000001C211.81000000000003 126.00000000000001 212.64000000000004 126.22000000000001 213.48000000000005 126.54000000000002C214.21000000000004 126.97000000000003 214.86000000000004 127.51000000000002 215.41000000000005 128.26000000000002C215.87000000000006 129.02 216.24000000000007 129.88000000000002 216.43000000000006 131.07000000000002C216.61000000000007 132.14000000000001 216.61000000000007 133.44000000000003 216.43000000000006 134.84000000000003L216.06000000000006 137.43000000000004L205.27000000000007 137.43000000000004ZM207.48 130.53C206.64999999999998 131.5 206 132.79 205.63 134.52L213.66 134.52C213.84 132.68 213.66 131.39000000000001 213.10999999999999 130.42000000000002C212.64 129.56 211.72 129.13000000000002 210.51999999999998 129.13000000000002C209.32 129.13000000000002 208.30999999999997 129.56000000000003 207.48 130.53000000000003Z " fill="#de720f" fill-opacity="1" transform="matrix(1,0,0,1,-134,-59)"></path><path id="SvgjsPath1012" d="M232.02 145.83L233.96 133.01000000000002C233.68 133.44000000000003 233.5 133.87000000000003 233.22 134.3C232.94 134.73000000000002 232.76 135.16000000000003 232.48 135.59L228.06 143.03L225.75 143.03L223.44 135.49L222.8 133.11L220.86 145.94000000000003L218 145.94000000000003L221.04 126.00000000000003L223.72 126.00000000000003L226.3 135.49000000000004C226.49 136.24000000000004 226.67000000000002 136.89000000000004 226.86 137.64000000000004C227.04000000000002 138.29000000000005 227.22000000000003 139.04000000000005 227.41000000000003 139.80000000000004C227.78000000000003 139.15000000000003 228.24000000000004 138.40000000000003 228.61 137.64000000000004C228.98000000000002 136.89000000000004 229.35000000000002 136.13000000000005 229.81 135.49000000000004L235.25 126.00000000000004L237.93 126.00000000000004L234.79000000000002 145.83000000000004Z " fill="#de720f" fill-opacity="1" transform="matrix(1,0,0,1,-134,-59)"></path><path id="SvgjsPath1013" d="M242.27 137.32L242.17000000000002 137.64C242.08 138.39999999999998 242.08 139.14999999999998 242.08 139.91C242.17000000000002 140.66 242.36 141.2 242.63000000000002 141.74C242.91000000000003 142.28 243.28000000000003 142.71 243.83 142.92000000000002C244.29000000000002 143.25000000000003 244.94000000000003 143.36 245.68 143.36C246.23000000000002 143.36 246.88 143.25 247.62 142.92000000000002C248.35 142.60000000000002 249.09 142.17000000000002 249.74 141.52L251.21 143.89000000000001C250.29000000000002 144.76000000000002 249.28 145.4 248.17000000000002 145.83C247.06 146.27 246.05 146.48000000000002 244.94000000000003 146.48000000000002C244.11 146.48000000000002 243.19000000000003 146.37 242.45000000000002 146.05C241.62 145.73000000000002 240.97000000000003 145.3 240.33 144.54000000000002C239.77 143.79000000000002 239.31 142.71 239.13000000000002 141.41000000000003C238.94000000000003 140.12000000000003 238.94000000000003 138.40000000000003 239.22000000000003 136.35000000000002C239.50000000000003 134.41000000000003 239.96000000000004 132.79000000000002 240.60000000000002 131.39000000000001C241.25000000000003 129.99 241.99 129.02 242.73000000000002 128.26000000000002C243.56000000000003 127.51000000000002 244.39000000000001 126.86000000000001 245.31000000000003 126.54000000000002C246.23000000000002 126.22000000000003 247.06000000000003 126.00000000000001 247.89000000000004 126.00000000000001C248.81000000000003 126.00000000000001 249.64000000000004 126.22000000000001 250.48000000000005 126.54000000000002C251.21000000000004 126.97000000000003 251.86000000000004 127.51000000000002 252.41000000000005 128.26000000000002C252.87000000000006 129.02 253.24000000000007 129.88000000000002 253.43000000000006 131.07000000000002C253.61000000000007 132.14000000000001 253.61000000000007 133.44000000000003 253.43000000000006 134.84000000000003L253.06000000000006 137.43000000000004L242.27000000000007 137.43000000000004ZM244.48 130.53C243.64999999999998 131.5 243 132.79 242.63 134.52L250.66 134.52C250.84 132.68 250.66 131.39000000000001 250.10999999999999 130.42000000000002C249.54999999999998 129.56 248.72 129.13000000000002 247.51999999999998 129.13000000000002C246.32 129.13000000000002 245.30999999999997 129.56000000000003 244.48 130.53000000000003Z " fill="#de720f" fill-opacity="1" transform="matrix(1,0,0,1,-134,-59)"></path><path id="SvgjsPath1014" d="M265.79 145.94L267.08000000000004 137.21L259.15000000000003 137.21L257.86 145.94L255 145.94L258.04 126L260.90000000000003 126L259.61 134.52L267.55 134.52L268.84000000000003 126.00000000000001L271.70000000000005 126.00000000000001L268.65000000000003 145.94000000000003Z " fill="#de720f" fill-opacity="1" transform="matrix(1,0,0,1,-134,-59)"></path><path id="SvgjsPath1015" d="M283.79 145.94L285.08000000000004 137.21L277.15000000000003 137.21L275.86 145.94L273 145.94L276.04 126L278.90000000000003 126L277.61 134.52L285.55 134.52L286.84000000000003 126.00000000000001L289.70000000000005 126.00000000000001L286.65000000000003 145.94000000000003Z " fill="#de720f" fill-opacity="1" transform="matrix(1,0,0,1,-134,-59)"></path><path id="SvgjsPath1016" d="M299.5 133.76C300.42 133.76 301.35 133.87 301.99 134.19C302.64 134.52 303.28000000000003 134.95 303.65000000000003 135.49C304.02000000000004 136.03 304.39000000000004 136.67000000000002 304.48 137.43C304.67 138.18 304.67 138.94 304.48 139.8C304.21000000000004 141.63000000000002 303.47 143.14000000000001 302.27000000000004 144.22C301.07000000000005 145.3 299.50000000000006 145.94 297.56000000000006 145.94L290.00000000000006 145.94L293.0400000000001 126L295.9000000000001 126L294.7000000000001 133.76ZM301.25 137.75C300.89 137.1 300.15 136.78 299.04 136.78L294.34000000000003 136.78L293.41 142.92L298.12 142.92C299.13 142.92 299.87 142.70999999999998 300.52 142.17C301.07 141.63 301.44 140.88 301.62 139.79999999999998C301.72 139.04 301.62 138.39999999999998 301.25 137.74999999999997ZM305.59 145.94L308.45 145.94L311.49 126L308.63 126Z " fill="#de720f" fill-opacity="1" transform="matrix(1,0,0,1,-134,-59)"></path><path id="SvgjsPath1017" d="M316.27 137.32L316.16999999999996 137.64C316.08 138.39999999999998 315.98999999999995 139.14999999999998 316.08 139.91C316.16999999999996 140.66 316.35999999999996 141.2 316.63 141.74C316.90999999999997 142.28 317.28 142.71 317.83 142.92000000000002C318.28999999999996 143.25000000000003 318.94 143.36 319.68 143.36C320.23 143.36 320.88 143.25 321.62 142.92000000000002C322.35 142.60000000000002 323.09000000000003 142.17000000000002 323.74 141.52L325.21000000000004 143.89000000000001C324.29 144.76000000000002 323.28000000000003 145.4 322.17 145.83C321.06 146.27 320.05 146.48000000000002 318.94 146.48000000000002C318.11 146.48000000000002 317.19 146.37 316.45 146.05C315.62 145.73000000000002 314.96999999999997 145.3 314.33 144.54000000000002C313.77 143.79000000000002 313.31 142.71 313.13 141.41000000000003C312.94 140.12000000000003 312.94 138.40000000000003 313.21999999999997 136.35000000000002C313.49999999999994 134.41000000000003 313.96 132.79000000000002 314.59999999999997 131.39000000000001C315.24999999999994 129.99 315.98999999999995 129.02 316.72999999999996 128.26000000000002C317.55999999999995 127.51000000000002 318.39 126.86000000000001 319.30999999999995 126.54000000000002C320.22999999999996 126.22000000000003 321.05999999999995 126.00000000000001 321.88999999999993 126.00000000000001C322.80999999999995 126.00000000000001 323.63999999999993 126.22000000000001 324.4799999999999 126.54000000000002C325.2099999999999 126.97000000000003 325.8599999999999 127.51000000000002 326.4099999999999 128.26000000000002C326.8699999999999 129.02 327.2399999999999 129.88000000000002 327.4299999999999 131.07000000000002C327.6099999999999 132.14000000000001 327.6099999999999 133.44000000000003 327.4299999999999 134.84000000000003L327.0599999999999 137.43000000000004L316.26999999999987 137.43000000000004ZM318.48 130.53C317.65000000000003 131.5 317 132.79 316.63 134.52L324.65999999999997 134.52C324.84 132.68 324.65999999999997 131.39000000000001 324.10999999999996 130.42000000000002C323.54999999999995 129.56 322.62999999999994 129.13000000000002 321.52 129.13000000000002C320.32 129.13000000000002 319.31 129.56000000000003 318.47999999999996 130.53000000000003Z " fill="#de720f" fill-opacity="1" transform="matrix(1,0,0,1,-134,-59)"></path><path id="SvgjsPath1018" d="M157.94 79.19C159.41 79.94 160.60999999999999 81.02 161.54 82.31C162.45999999999998 83.61 163.1 85.22 163.38 87.05C163.66 88.89 163.66 90.94 163.38 93.09L162 102.25C161.63 104.52 160.98 106.67 160.15 108.51C159.23000000000002 110.34 158.12 111.96000000000001 156.83 113.25C155.54000000000002 114.54 153.97 115.62 152.31 116.27C150.56 117.02 148.81 117.35 146.78 117.35C144.65 117.35 142.81 116.91 141.33 116.16C139.86 115.3 138.66000000000003 114.22 137.83 112.82C137 111.41999999999999 136.44000000000003 109.8 136.17000000000002 107.97C135.89000000000001 106.13 135.98000000000002 104.19 136.26000000000002 102.25L137.64000000000001 93.09C137.92000000000002 91.04 138.47000000000003 89.21000000000001 139.3 87.38000000000001C140.13000000000002 85.55000000000001 141.15 83.93 142.44 82.53000000000002C143.73 81.13000000000001 145.21 80.05000000000001 146.96 79.19000000000001C148.53 78.43 150.47 78.00000000000001 152.68 78.00000000000001C154.71 78.00000000000001 156.46 78.43000000000002 157.94 79.19000000000001ZM148.9 86.52C148.16 86.83999999999999 147.51000000000002 87.38 147.05 87.92C146.5 88.46000000000001 146.04000000000002 89.21000000000001 145.76000000000002 89.97C145.39000000000001 90.72 145.21 91.47 145.12000000000003 92.23L143.55000000000004 102.69C143.45000000000005 103.55 143.36000000000004 104.3 143.55000000000004 105.16C143.64000000000004 105.92 143.92000000000004 106.67 144.28000000000003 107.21C144.65000000000003 107.86 145.12000000000003 108.28999999999999 145.76000000000002 108.61C146.41000000000003 108.94 147.14000000000001 109.15 148.07000000000002 109.15C149.82000000000002 109.15 151.3 108.51 152.50000000000003 107.32000000000001C153.69000000000003 106.13000000000001 154.34000000000003 104.52000000000001 154.62000000000003 102.69000000000001L156.18000000000004 92.23000000000002C156.46000000000004 90.50000000000001 156.18000000000004 89.10000000000002 155.35000000000002 87.81000000000002C154.43000000000004 86.62000000000002 153.14000000000001 85.98000000000002 151.39000000000001 85.98000000000002C150.47000000000003 85.98000000000002 149.64000000000001 86.19000000000001 148.9 86.52000000000002Z " fill="#5086aa" fill-opacity="1" transform="matrix(1,0,0,1,-134,-59)"></path><path id="SvgjsPath1019" d="M182.27 103.15C183.19 103.47 183.93 104.23 184.29000000000002 105.09C184.66000000000003 106.06 184.94000000000003 107.14 185.03000000000003 108.43L186.05000000000004 117.27000000000001L179.04000000000005 117.27000000000001L178.39000000000004 110.80000000000001C178.11000000000004 108.97000000000001 177.65000000000003 107.89000000000001 177.01000000000005 107.36000000000001C176.36000000000004 106.82000000000001 175.53000000000006 106.60000000000001 174.70000000000005 106.60000000000001L172.49000000000004 106.60000000000001L170.83000000000004 117.38000000000001L164.00000000000003 117.38000000000001L168.15000000000003 90.00000000000001L174.98000000000005 90.00000000000001L173.41000000000005 100.46000000000001L175.44000000000005 100.46000000000001C175.81000000000006 100.46000000000001 176.18000000000006 100.46000000000001 176.64000000000004 100.35000000000001C177.01000000000005 100.24000000000001 177.47000000000006 100.13000000000001 177.93000000000004 99.81C178.39000000000004 99.49000000000001 178.76000000000005 99.16 179.22000000000003 98.62C179.59000000000003 98.08 180.05000000000004 97.33 180.42000000000002 96.47L183.10000000000002 90L189.83 90L186.51000000000002 97.98C186.05 99.27000000000001 185.4 100.35000000000001 184.76000000000002 101.21000000000001C184.11 102.07000000000001 183.28000000000003 102.72000000000001 182.45000000000002 103.04Z " fill="#5086aa" fill-opacity="1" transform="matrix(1,0,0,1,-134,-59)"></path><path id="SvgjsPath1020" d="M204.58 117.49L206.24 106.71L198.39000000000001 106.71L196.73000000000002 117.49L190.00000000000003 117.49L194.15000000000003 90L200.89000000000004 90L199.32000000000005 100.67L207.16000000000005 100.67L208.73000000000005 90L215.37000000000003 90L211.22000000000003 117.49Z " fill="#5086aa" fill-opacity="1" transform="matrix(1,0,0,1,-134,-59)"></path><path id="SvgjsPath1021" d="M229.21 114.22L229.12 114.12C228.66 114.66000000000001 228.11 115.09 227.55 115.52000000000001C227 115.84 226.45000000000002 116.16000000000001 225.89000000000001 116.38000000000001C225.34 116.60000000000001 224.79000000000002 116.7 224.23000000000002 116.81000000000002C223.68 116.92000000000002 223.22000000000003 116.92000000000002 222.85000000000002 116.92000000000002C221.74 116.92000000000002 220.64000000000001 116.70000000000002 219.81000000000003 116.38000000000001C218.88000000000002 116.06000000000002 218.14000000000004 115.52000000000001 217.50000000000003 114.87C216.95000000000002 114.22 216.48000000000002 113.36 216.21000000000004 112.28C215.93000000000004 111.21000000000001 215.93000000000004 109.91 216.21000000000004 108.51C216.39000000000004 107.33 216.76000000000005 106.25 217.31000000000003 105.28C217.87000000000003 104.2 218.51000000000002 103.34 219.34000000000003 102.58C220.17000000000004 101.83 221.19000000000003 101.17999999999999 222.30000000000004 100.75C223.40000000000003 100.32 224.69000000000003 100.1 226.08000000000004 100.1L231.43000000000004 100.1L231.52000000000004 99.24C231.52000000000004 98.92 231.61000000000004 98.58999999999999 231.52000000000004 98.16C231.52000000000004 97.72999999999999 231.34000000000003 97.41 231.15000000000003 97.08C230.97000000000003 96.76 230.60000000000002 96.44 230.14000000000004 96.22C229.68000000000004 96.01 228.94000000000005 95.9 228.11000000000004 95.9C227.00000000000003 95.9 225.99000000000004 96.01 225.06000000000003 96.33000000000001C224.14000000000004 96.65 223.13000000000002 97.19000000000001 222.20000000000002 98.05000000000001L219.71 92.67000000000002C221.37 91.16000000000001 223.03 90.19000000000001 224.79000000000002 89.65000000000002C226.45000000000002 89.22000000000001 228.20000000000002 89.00000000000001 229.86 89.00000000000001C231.24 89.00000000000001 232.54000000000002 89.11000000000001 233.64000000000001 89.43000000000002C234.84 89.75000000000001 235.86 90.19000000000003 236.59 90.94000000000003C237.33 91.69000000000003 237.98 92.67000000000003 238.35 93.85000000000002C238.72 95.04000000000002 238.72 96.55000000000003 238.44 98.38000000000002L235.67 116.81000000000003L228.85 116.81000000000003ZM226.08 105.92C225.43 105.92 224.97 106.03 224.60000000000002 106.14C224.23000000000002 106.25 223.86 106.46 223.68000000000004 106.68C223.40000000000003 106.89 223.31000000000003 107.11000000000001 223.22000000000003 107.33000000000001C223.13000000000002 107.54 223.03000000000003 107.76000000000002 223.03000000000003 108.08000000000001C223.03000000000003 108.30000000000001 223.03000000000003 108.51000000000002 223.03000000000003 108.83000000000001C223.03000000000003 109.16000000000001 223.22000000000003 109.37000000000002 223.40000000000003 109.70000000000002C223.59000000000003 110.02000000000001 223.86000000000004 110.24000000000002 224.23000000000005 110.45000000000002C224.60000000000005 110.67000000000002 225.16000000000005 110.77000000000001 225.89000000000004 110.77000000000001C226.91000000000005 110.77000000000001 227.92000000000004 110.45000000000002 228.85000000000005 109.91000000000001C229.77000000000004 109.27000000000001 230.32000000000005 108.4 230.51000000000005 107.00000000000001L230.51000000000005 105.92000000000002Z " fill="#5086aa" fill-opacity="1" transform="matrix(1,0,0,1,-134,-59)"></path><path id="SvgjsPath1022" d="M259.17 116.7L263.88 85.76L252.99 85.76L248.29000000000002 116.7L241.00000000000003 116.7L246.81000000000003 78L272.18 78L266.37 116.7Z " fill="#5086aa" fill-opacity="1" transform="matrix(1,0,0,1,-134,-59)"></path><path id="SvgjsPath1023" d="M298.55 110.8C297.81 112.2 296.89 113.39 295.79 114.46C294.68 115.44 293.48 116.3 292.19 116.83999999999999C290.9 117.38 289.51 117.69999999999999 288.13 117.69999999999999L273 117.69999999999999L278.81 78.99999999999999L292.74 78.99999999999999C294.49 78.99999999999999 295.97 79.21999999999998 297.26 79.74999999999999C298.55 80.28999999999999 299.57 81.04999999999998 300.4 82.01999999999998C301.22999999999996 82.98999999999998 301.69 84.16999999999999 301.96999999999997 85.46999999999998C302.23999999999995 86.86999999999999 302.23999999999995 88.26999999999998 302.05999999999995 89.88999999999999C301.86999999999995 91.28999999999999 301.31999999999994 92.68999999999998 300.48999999999995 94.08999999999999C299.65999999999997 95.49 298.36999999999995 96.57 296.79999999999995 97.42999999999999L296.79999999999995 97.64999999999999C297.53999999999996 97.96999999999998 298.09 98.50999999999999 298.54999999999995 99.05C299.00999999999993 99.7 299.37999999999994 100.34 299.65999999999997 101.21C299.93999999999994 102.07 300.11999999999995 102.82 300.21 103.69C300.31 104.44 300.21 105.19 300.12 106.06C299.84000000000003 107.78 299.38 109.4 298.55 110.8ZM292.65 104.01C292.56 103.47 292.37 103.04 292.09999999999997 102.61C291.82 102.17999999999999 291.35999999999996 101.85 290.9 101.64C290.34 101.42 289.7 101.31 288.96 101.31L282.69 101.31L281.39 109.83L287.66999999999996 109.83C289.23999999999995 109.83 290.42999999999995 109.39999999999999 291.16999999999996 108.53999999999999C291.99999999999994 107.77999999999999 292.46 106.69999999999999 292.65 105.63C292.73999999999995 105.08999999999999 292.73999999999995 104.55 292.65 104.00999999999999ZM293.66 87.52C293.11 86.86999999999999 292.1 86.44 290.62 86.44L284.99 86.44L283.79 94.2L289.42 94.2C290.99 94.2 292.1 93.77 292.83000000000004 93.01C293.66 92.15 294.03000000000003 91.29 294.22 90.21000000000001C294.40000000000003 89.13000000000001 294.22 88.27000000000001 293.66 87.52000000000001Z " fill="#5086aa" fill-opacity="1" transform="matrix(1,0,0,1,-134,-59)"></path><path id="SvgjsPath1024" d="M321.49 116.7L316.79 104.09L308.3 116.7L300 116.7L314.21 96.86L306.46 78L314.76 78L318.90999999999997 89.64L326.57 78L334.87 78L321.4 96.86L329.7 116.7Z " fill="#5086aa" fill-opacity="1" transform="matrix(1,0,0,1,-134,-59)"></path><path id="SvgjsPath1025" d="M335 144.23L362.4 144.13L368.76 94L341.18 94.32Z " fill="#5086aa" fill-opacity="1" transform="matrix(1,0,0,1,-134,-59)"></path><path id="SvgjsPath1026" d="M342 87.89L369.31 87.67L372.9 59.11L345.59999999999997 59Z " fill="#de720f" fill-opacity="1" transform="matrix(1,0,0,1,-134,-59)"></path><path id="SvgjsPath1027" d="M337.3 72.04L304 72.04L305.66 59.11000000000001L338.96000000000004 59.00000000000001 " fill="#de720f" fill-opacity="1" transform="matrix(1,0,0,1,-134,-59)"></path></svg>